<?xml version="1.0" encoding="UTF-8"?><svg id="Group_1047" xmlns="http://www.w3.org/2000/svg" xmlns:xlink="http://www.w3.org/1999/xlink" viewBox="0 0 382 80"><defs><style>.cls-1{fill:#fff;}.cls-2{fill:#2dc0e8;}.cls-3{clip-path:url(#clippath);}.cls-4{fill:none;}</style><clipPath id="clippath"><rect class="cls-4" width="382" height="80"/></clipPath></defs><g id="Group_1048"><g class="cls-3"><g id="Group_1047-2"><path id="Path_973" class="cls-1" d="M39,0H343c21.54,0,39,17.46,39,39v2c0,21.54-17.46,39-39,39H39C17.46,80,0,62.54,0,41v-2C0,17.46,17.46,0,39,0"/><path id="Path_974" class="cls-2" d="M343,80H39C17.47,79.98,.02,62.53,0,41v-2C.02,17.47,17.47,.02,39,0H343c21.53,.02,38.98,17.47,39,39v2c-.02,21.53-17.47,38.98-39,39M39,5c-18.77,.02-33.98,15.23-34,34v2c.02,18.77,15.23,33.98,34,34H343c18.77-.02,33.98-15.23,34-34v-2c-.02-18.77-15.23-33.98-34-34H39Z"/></g></g></g><path class="cls-2" d="M42,78.29c-.54,0-1.09-.15-1.58-.47-1.21-.77-1.67-2.24-1.13-3.56l10.1-24.74-14.57-4.11c-.96-.27-1.71-1-2-1.96-.29-.96-.08-1.98,.57-2.74L65.54,2.84c.94-1.1,2.51-1.35,3.75-.6,1.23,.75,1.73,2.27,1.17,3.61l-10.73,25.83,17.22,3.98c1.01,.23,1.83,1,2.13,1.99,.3,.99,.05,2.08-.65,2.84l-34.3,36.85c-.58,.62-1.34,.94-2.13,.94Zm-4.82-36.17l14.2,4c.8,.23,1.47,.78,1.83,1.53,.36,.75,.39,1.61,.08,2.38l-8.63,21.16,29.94-32.16-16.74-3.87c-.84-.19-1.54-.74-1.94-1.51s-.43-1.66-.1-2.45l8.95-21.54-27.57,32.46Z"/><g><path class="cls-2" d="M106.72,49.21h-6.13v-15.31h5.84c3.24,0,4.96,1.79,4.96,3.94,0,1.85-1.12,2.97-2.6,3.5,1.63,.29,2.95,1.92,2.95,3.75,0,2.33-1.9,4.12-5.02,4.12Zm-.51-13.26h-3.11v4.38h3.11c1.63,0,2.62-.77,2.62-2.18s-.99-2.2-2.62-2.2Zm.2,6.43h-3.3v4.78h3.39c1.7,0,2.73-.86,2.73-2.34s-1.15-2.45-2.82-2.45Z"/><path class="cls-2" d="M113.68,33.89h10.69v2.05h-4.08v13.26h-2.51v-13.26h-4.1v-2.05Z"/><path class="cls-2" d="M133.89,33.7c3.19,0,5.95,1.61,7.12,4.61h-3.02c-.81-1.63-2.27-2.4-4.1-2.4-3.04,0-5.24,2.16-5.24,5.62s2.2,5.64,5.24,5.64c1.83,0,3.28-.77,4.1-2.4h3.02c-1.17,3-3.92,4.58-7.12,4.58-4.32,0-7.82-3.22-7.82-7.82s3.5-7.82,7.82-7.82Z"/><path class="cls-2" d="M162.79,41.61c0,4.71-3.22,7.6-8.13,7.6h-5v-15.31h5c4.91,0,8.13,2.97,8.13,7.71Zm-8.13,5.55c3.61,0,5.55-2.07,5.55-5.55s-1.94-5.66-5.55-5.66h-2.49v11.22h2.49Z"/><path class="cls-2" d="M173.74,35.92h-5.95v4.5h5.29v2.05h-5.29v4.69h5.95v2.05h-8.46v-15.33h8.46v2.05Z"/><path class="cls-2" d="M182.95,49.21h-6.13v-15.31h5.84c3.24,0,4.96,1.79,4.96,3.94,0,1.85-1.12,2.97-2.6,3.5,1.63,.29,2.95,1.92,2.95,3.75,0,2.33-1.9,4.12-5.02,4.12Zm-.51-13.26h-3.11v4.38h3.11c1.63,0,2.62-.77,2.62-2.18s-.99-2.2-2.62-2.2Zm.2,6.43h-3.31v4.78h3.39c1.7,0,2.73-.86,2.73-2.34s-1.15-2.45-2.82-2.45Z"/><path class="cls-2" d="M190.71,33.89h2.51v15.31h-2.51v-15.31Z"/><path class="cls-2" d="M195.73,33.89h10.69v2.05h-4.08v13.26h-2.51v-13.26h-4.1v-2.05Z"/><path class="cls-2" d="M221.66,33.7c3.19,0,5.95,1.61,7.12,4.61h-3.02c-.82-1.63-2.27-2.4-4.1-2.4-3.04,0-5.24,2.16-5.24,5.62s2.2,5.64,5.24,5.64c1.83,0,3.28-.77,4.1-2.4h3.02c-1.17,3-3.92,4.58-7.12,4.58-4.32,0-7.82-3.22-7.82-7.82s3.5-7.82,7.82-7.82Z"/><path class="cls-2" d="M240.94,46.08h-6.41l-1.1,3.13h-2.62l5.49-15.33h2.91l5.49,15.33h-2.64l-1.1-3.13Zm-3.2-9.17l-2.51,7.12h5l-2.49-7.12Z"/><path class="cls-2" d="M252.35,33.89c3.64,0,5.42,2.09,5.42,4.58,0,1.81-.97,3.75-3.55,4.38l3.79,6.35h-3l-3.53-6.12h-1.92v6.12h-2.51v-15.31h5.29Zm0,2.05h-2.78v5.13h2.78c1.96,0,2.84-1.08,2.84-2.6s-.88-2.53-2.84-2.53Z"/><path class="cls-2" d="M274.12,41.61c0,4.71-3.22,7.6-8.13,7.6h-5v-15.31h5c4.91,0,8.13,2.97,8.13,7.71Zm-8.13,5.55c3.61,0,5.55-2.07,5.55-5.55s-1.94-5.66-5.55-5.66h-2.49v11.22h2.49Z"/><path class="cls-2" d="M287.38,49.36c-3.06,0-5.42-1.67-5.42-4.38h2.69c.11,1.26,.99,2.27,2.73,2.27s2.75-.95,2.75-2.25c0-3.7-8.13-1.3-8.13-6.94,0-2.69,2.14-4.36,5.27-4.36,2.93,0,5,1.54,5.22,4.16h-2.78c-.09-1.04-.99-1.98-2.58-2.03-1.45-.04-2.58,.66-2.58,2.14,0,3.46,8.11,1.3,8.11,6.9,0,2.29-1.87,4.5-5.29,4.5Z"/><path class="cls-2" d="M304.1,35.92h-5.95v4.5h5.29v2.05h-5.29v4.69h5.95v2.05h-8.46v-15.33h8.46v2.05Z"/><path class="cls-2" d="M306.39,33.89h10.69v2.05h-4.08v13.26h-2.51v-13.26h-4.1v-2.05Z"/><path class="cls-2" d="M319.59,33.89h2.51v9.76c0,2.38,1.34,3.5,3.46,3.5s3.48-1.12,3.48-3.5v-9.76h2.51v9.72c0,3.9-2.82,5.75-6.02,5.75s-5.95-1.85-5.95-5.75v-9.72Z"/><path class="cls-2" d="M340.1,42.99h-2.78v6.21h-2.51v-15.31h5.29c3.64,0,5.42,2.07,5.42,4.56,0,2.18-1.43,4.54-5.42,4.54Zm0-2.05c1.96,0,2.84-.95,2.84-2.49s-.88-2.51-2.84-2.51h-2.78v5h2.78Z"/></g></svg>