<svg id="Group_1047" data-name="Group 1047" xmlns="http://www.w3.org/2000/svg" xmlns:xlink="http://www.w3.org/1999/xlink" width="382" height="80" viewBox="0 0 382 80">
  <defs>
    <clipPath id="clip-path">
      <rect id="Rectangle_322" data-name="Rectangle 322" width="382" height="80" fill="none"/>
    </clipPath>
    <clipPath id="clip-path-2">
      <rect id="Rectangle_323" data-name="Rectangle 323" width="59.219" height="76.291" transform="translate(33.142 3.709)" fill="none"/>
    </clipPath>
  </defs>
  <g id="Group_1048" data-name="Group 1048">
    <g id="Group_1047-2" data-name="Group 1047" clip-path="url(#clip-path)">
      <path id="Path_973" data-name="Path 973" d="M39,0H343a39,39,0,0,1,39,39v2a39,39,0,0,1-39,39H39A39,39,0,0,1,0,41V39A39,39,0,0,1,39,0" fill="#fff"/>
      <path id="Path_974" data-name="Path 974" d="M343,80H39A39.044,39.044,0,0,1,0,41V39A39.044,39.044,0,0,1,39,0H343a39.044,39.044,0,0,1,39,39v2a39.044,39.044,0,0,1-39,39M39,5A34.038,34.038,0,0,0,5,39v2A34.038,34.038,0,0,0,39,75H343a34.038,34.038,0,0,0,34-34V39A34.038,34.038,0,0,0,343,5Z" fill="#2dc0e8"/>
    </g>
  </g>
  <g id="Group_1050" data-name="Group 1050">
    <g id="Group_1049" data-name="Group 1049" clip-path="url(#clip-path-2)">
      <path id="Path_975" data-name="Path 975" d="M90.1,24.235H68.525a1.693,1.693,0,0,0,.132-.331L84.548,22a1.751,1.751,0,0,0,.364-.085,5.476,5.476,0,0,0,3.342-3.084,7.487,7.487,0,0,0-.321-6.011c-2.969-6.415-6.181-9.385-9.784-9.1-5.762.465-9.827,9.967-11.607,15.093a5.962,5.962,0,0,0-7.573,0C57.181,13.695,53.116,4.193,47.353,3.728c-3.611-.29-6.811,2.681-9.784,9.093a7.485,7.485,0,0,0-.32,6.012,5.471,5.471,0,0,0,3.343,3.083,1.689,1.689,0,0,0,.364.085l15.891,1.9a1.69,1.69,0,0,0,.131.331H35.4a2.261,2.261,0,0,0-2.261,2.261V38.632A2.263,2.263,0,0,0,35.4,40.893h.019l1.428-.011V77.739A2.261,2.261,0,0,0,39.111,80H86.393a2.261,2.261,0,0,0,2.261-2.261V40.882l1.429.011a2.261,2.261,0,0,0,2.278-2.244V26.5A2.261,2.261,0,0,0,90.1,24.235M87.842,36.354l-.676-.005a2.226,2.226,0,0,0-.77-.143H68.728V28.757H87.842Zm-3.71,20.023h-15.4V51.326h15.4Zm-27.357-4.3v4.3H41.429V51.326H56.775Zm3.451,23.4V28.9h5.051V75.478Zm18.2-68.31c.056,0,.111-.006.167-.006,1.881,0,4.078,2.512,6.209,7.11a4.127,4.127,0,0,1,.274,3.216A2.016,2.016,0,0,1,83.929,18.6l-14.26,1.71c2.029-5.958,5.583-12.884,8.758-13.14M41.574,18.6a2.016,2.016,0,0,1-1.147-1.112,4.127,4.127,0,0,1,.274-3.216c2.193-4.734,4.454-7.255,6.376-7.1,3.174.255,6.729,7.182,8.757,13.14Zm18.652,4.841a2.526,2.526,0,1,1,5.051-.1c0,.034,0,.067,0,.1a1.7,1.7,0,0,0,.2.794H60.024a1.7,1.7,0,0,0,.2-.794m-22.56,5.316H56.775v7.587a2.225,2.225,0,0,0-.753-.138H39.11a2.243,2.243,0,0,0-.768.143l-.678.005Zm18.378,11.97a2.158,2.158,0,0,0,.227-.025c.073-.008.148-.009.219-.024a2.091,2.091,0,0,0,.221-.068c.023-.007.046-.013.068-.021v7.287H41.371v-7.03Zm-14.671,19.1h15.4v15.65h-15.4Zm27.356,0h15.4v15.65h-15.4Zm15.4-11.953h-15.4V40.727l15.4.12Z" fill="#2dc0e8"/>
    </g>
  </g>
  <g id="Group_1052" data-name="Group 1052">
    <g id="Group_1051" data-name="Group 1051" clip-path="url(#clip-path)">
      <path id="Path_976" data-name="Path 976" d="M146.716,38.109a4.045,4.045,0,0,0-1.65-1.728,4.977,4.977,0,0,0-2.442-.583,5.334,5.334,0,0,0-2.706.683,4.779,4.779,0,0,0-1.859,1.936,6.064,6.064,0,0,0-.671,2.9,6.133,6.133,0,0,0,.671,2.915,4.762,4.762,0,0,0,1.859,1.946,5.334,5.334,0,0,0,2.706.683,4.788,4.788,0,0,0,3.322-1.145,4.962,4.962,0,0,0,1.562-3.1h-5.742v-2h8.426v1.958a7.55,7.55,0,0,1-7.568,6.555,7.906,7.906,0,0,1-3.938-1,7.459,7.459,0,0,1-2.827-2.784,8.276,8.276,0,0,1,0-8.051,7.453,7.453,0,0,1,2.838-2.784,8.34,8.34,0,0,1,8.272.2,6.828,6.828,0,0,1,2.761,3.4Z" fill="#2dc0e8"/>
      <rect id="Rectangle_324" data-name="Rectangle 324" width="2.508" height="15.29" transform="translate(152.656 33.709)" fill="#2dc0e8"/>
      <path id="Path_977" data-name="Path 977" d="M167.461,33.709v2.046h-6.49v4.51h5.06v2.046h-5.06V49h-2.508V33.709Z" fill="#2dc0e8"/>
      <path id="Path_978" data-name="Path 978" d="M179.671,33.709v2.046H175.6V49h-2.508V35.755H169V33.709Z" fill="#2dc0e8"/>
      <path id="Path_979" data-name="Path 979" d="M188.13,37.295a7.457,7.457,0,0,1,2.838-2.783,8.343,8.343,0,0,1,8.272.2,6.836,6.836,0,0,1,2.761,3.4h-3.014a4.044,4.044,0,0,0-1.65-1.8,4.9,4.9,0,0,0-2.442-.594,5.344,5.344,0,0,0-2.706.682,4.75,4.75,0,0,0-1.859,1.958,6.908,6.908,0,0,0,0,5.94,4.816,4.816,0,0,0,1.859,1.969,5.27,5.27,0,0,0,2.706.693,4.9,4.9,0,0,0,2.442-.594,4.044,4.044,0,0,0,1.65-1.8H202a6.772,6.772,0,0,1-2.761,3.388,8.034,8.034,0,0,1-4.345,1.188,7.9,7.9,0,0,1-3.938-1,7.463,7.463,0,0,1-2.827-2.783,8.278,8.278,0,0,1,0-8.052" fill="#2dc0e8"/>
      <path id="Path_980" data-name="Path 980" d="M214.145,45.875h-6.4L206.643,49h-2.618L209.5,33.687h2.9L217.885,49h-2.64Zm-.7-2.046-2.486-7.106-2.508,7.106Z" fill="#2dc0e8"/>
      <path id="Path_981" data-name="Path 981" d="M228.2,49l-3.52-6.116H222.77V49h-2.509V33.709h5.28a6.575,6.575,0,0,1,2.981.616,4.275,4.275,0,0,1,1.826,1.65,4.5,4.5,0,0,1,.6,2.31A4.579,4.579,0,0,1,230.084,41a4.408,4.408,0,0,1-2.673,1.661L231.2,49Zm-5.433-8.118h2.771a2.905,2.905,0,0,0,2.123-.7,2.537,2.537,0,0,0,.715-1.892,2.444,2.444,0,0,0-.7-1.859,2.994,2.994,0,0,0-2.134-.671H222.77Z" fill="#2dc0e8"/>
      <path id="Path_982" data-name="Path 982" d="M243.438,34.644a6.7,6.7,0,0,1,2.838,2.684,8.078,8.078,0,0,1,1,4.081,7.892,7.892,0,0,1-1,4.048,6.608,6.608,0,0,1-2.838,2.629,9.51,9.51,0,0,1-4.279.913h-4.994V33.709h4.994a9.318,9.318,0,0,1,4.279.935M243.273,45.5a5.58,5.58,0,0,0,1.43-4.092,5.772,5.772,0,0,0-1.43-4.158,5.427,5.427,0,0,0-4.114-1.5h-2.486v11.2h2.486a5.52,5.52,0,0,0,4.114-1.452" fill="#2dc0e8"/>
      <path id="Path_983" data-name="Path 983" d="M257.749,48.614a4.541,4.541,0,0,1-1.936-1.529,3.878,3.878,0,0,1-.7-2.31h2.684a2.428,2.428,0,0,0,.781,1.628,2.77,2.77,0,0,0,1.947.638,3,3,0,0,0,2.024-.627,2.038,2.038,0,0,0,.726-1.617,1.766,1.766,0,0,0-.451-1.254,3.006,3.006,0,0,0-1.122-.748,17.08,17.08,0,0,0-1.859-.573,17.3,17.3,0,0,1-2.431-.8,4.034,4.034,0,0,1-1.595-1.265,3.656,3.656,0,0,1-.66-2.288,4.072,4.072,0,0,1,.66-2.311,4.214,4.214,0,0,1,1.848-1.517,6.716,6.716,0,0,1,2.75-.529,5.736,5.736,0,0,1,3.641,1.112,4.1,4.1,0,0,1,1.573,3.047h-2.772a2.007,2.007,0,0,0-.792-1.43,2.928,2.928,0,0,0-1.914-.594,2.712,2.712,0,0,0-1.76.55,1.915,1.915,0,0,0-.682,1.584,1.6,1.6,0,0,0,.429,1.154,3.04,3.04,0,0,0,1.089.716,16.838,16.838,0,0,0,1.8.571,19.135,19.135,0,0,1,2.475.836,4.132,4.132,0,0,1,1.628,1.287,3.708,3.708,0,0,1,.671,2.322,4.173,4.173,0,0,1-.627,2.2,4.528,4.528,0,0,1-1.826,1.661,6.024,6.024,0,0,1-2.827.627,6.851,6.851,0,0,1-2.772-.539" fill="#2dc0e8"/>
      <path id="Path_984" data-name="Path 984" d="M271.279,35.733V40.22h5.28v2.046h-5.28v4.687h5.94V49h-8.448V33.687h8.448v2.046Z" fill="#2dc0e8"/>
      <path id="Path_985" data-name="Path 985" d="M290.176,33.709v2.046h-4.07V49H283.6V35.755h-4.092V33.709Z" fill="#2dc0e8"/>
      <path id="Path_986" data-name="Path 986" d="M295.192,33.709v9.746a3.133,3.133,0,0,0,3.454,3.5,3.541,3.541,0,0,0,2.563-.88,3.478,3.478,0,0,0,.913-2.618V33.709h2.508v9.7a5.852,5.852,0,0,1-.814,3.168,5.056,5.056,0,0,1-2.178,1.936,7.033,7.033,0,0,1-3.014.638,6.958,6.958,0,0,1-3-.638,4.929,4.929,0,0,1-2.145-1.936,5.972,5.972,0,0,1-.792-3.168v-9.7Z" fill="#2dc0e8"/>
      <path id="Path_987" data-name="Path 987" d="M318.028,40.463a4.128,4.128,0,0,1-1.76,1.684,6.543,6.543,0,0,1-3.1.648h-2.772V49h-2.508V33.709h5.28a6.672,6.672,0,0,1,2.981.606,4.2,4.2,0,0,1,1.826,1.639,4.487,4.487,0,0,1,.605,2.309,4.622,4.622,0,0,1-.55,2.2M315.3,40.1a2.374,2.374,0,0,0,.7-1.837q0-2.508-2.838-2.508h-2.772v4.994h2.772A3.053,3.053,0,0,0,315.3,40.1" fill="#2dc0e8"/>
    </g>
  </g>
</svg>
