<?xml version="1.0" encoding="UTF-8"?><svg id="Layer_1" xmlns="http://www.w3.org/2000/svg" viewBox="0 0 25 14.63"><defs><style>.cls-1{fill:#fff;}.cls-2{fill:#2dbbe3;}</style></defs><path class="cls-2" d="M25,7.31h0c0-.68-.36-1.31-.95-1.66L15.62,.71c-1.97-.95-4.27-.95-6.24,0L.95,5.65c-.59,.35-.95,.98-.95,1.66H0c0,.68,.36,1.31,.95,1.66l8.43,4.94c1.97,.95,4.27,.95,6.24,0l8.43-4.94c.59-.35,.95-.98,.95-1.66Z"/><circle class="cls-1" cx="12.5" cy="7.31" r="5.4"/><path class="cls-2" d="M12.5,5.52c-.99,0-1.8,.8-1.8,1.8s.8,1.8,1.8,1.8,1.8-.8,1.8-1.8-.8-1.8-1.8-1.8h0Z"/></svg>