<svg id="Group_1089" data-name="Group 1089" xmlns="http://www.w3.org/2000/svg" xmlns:xlink="http://www.w3.org/1999/xlink" width="297.861" height="175.043" viewBox="0 0 297.861 175.043">
  <defs>
    <clipPath id="clip-path">
      <rect id="Rectangle_363" data-name="Rectangle 363" width="297.861" height="175.043" fill="#006e6c"/>
    </clipPath>
  </defs>
  <g id="Group_1088" data-name="Group 1088" clip-path="url(#clip-path)">
    <path id="Path_1076" data-name="Path 1076" d="M78.8,95.03a24.6,24.6,0,0,0-14.765-9.118,25.294,25.294,0,0,0,13.035-8.586q4.892-6.18,4.895-15.521,0-12.651-9.114-20.038T47.611,34.384H0V140.153H49.266q16.577,0,25.839-7.758t9.266-21.021A25.872,25.872,0,0,0,78.8,95.03m-24.329-12.7-30.648,46.32a1.118,1.118,0,0,1-2.023-.863l6.743-29.827a1.117,1.117,0,0,0-.967-1.358l-17.7-1.952a1.118,1.118,0,0,1-.837-1.685L37.171,45.929a1.118,1.118,0,0,1,2.048.827L31.966,77.942a1.118,1.118,0,0,0,1.019,1.369L53.6,80.6a1.118,1.118,0,0,1,.863,1.733" fill="#006e6c"/>
    <path id="Path_1077" data-name="Path 1077" d="M179.59,75.29a38.892,38.892,0,0,0-15.668-15.143,49.785,49.785,0,0,0-44.6,0A38.868,38.868,0,0,0,103.657,75.29a44.629,44.629,0,0,0-5.726,22.826q0,13.112,5.651,22.9A38.581,38.581,0,0,0,119.1,136.085a46.394,46.394,0,0,0,22.225,5.273,47.294,47.294,0,0,0,22.372-5.273,39.212,39.212,0,0,0,15.819-15.143,44.212,44.212,0,0,0,5.8-22.826A44.668,44.668,0,0,0,179.59,75.29M153.9,113.637a16.784,16.784,0,0,1-12.578,5.424,15.842,15.842,0,0,1-12.279-5.424q-4.9-5.429-4.9-15.521,0-10.242,4.975-15.592a17.119,17.119,0,0,1,24.933.075q5.046,5.422,5.046,15.517t-5.2,15.521" fill="#006e6c"/>
    <rect id="Rectangle_362" data-name="Rectangle 362" width="25.764" height="111.493" transform="translate(202.793 28.66)" fill="#006e6c"/>
    <path id="Path_1078" data-name="Path 1078" d="M297.861,140.153V118.305h-9.19c-2.811,0-4.819-.548-6.024-1.658s-1.81-2.911-1.81-5.42V77.477H297.71v-21.4H280.837V35.589H255.073v20.49H244.83v21.4h10.243v33.448q0,15.521,7.834,22.372t21.847,6.856Z" fill="#006e6c"/>
    <path id="Path_1079" data-name="Path 1079" d="M220.292,157.686a10.441,10.441,0,0,1,3.935-4.063,10.849,10.849,0,0,1,5.567-1.456,11.319,11.319,0,0,1,6.414,1.776,10.088,10.088,0,0,1,3.888,5.007h-2.623a7.7,7.7,0,0,0-2.929-3.552,9.286,9.286,0,0,0-9.181-.128,7.991,7.991,0,0,0-3.088,3.312,11.726,11.726,0,0,0,0,10,8.006,8.006,0,0,0,3.088,3.295,9.33,9.33,0,0,0,9.181-.112,7.622,7.622,0,0,0,2.929-3.5H240.1a9.983,9.983,0,0,1-3.9,4.959,11.418,11.418,0,0,1-6.4,1.76,10.839,10.839,0,0,1-5.567-1.456,10.473,10.473,0,0,1-3.935-4.047,12.786,12.786,0,0,1,0-11.79" fill="#006e6c"/>
    <path id="Path_1080" data-name="Path 1080" d="M244.591,161.3a7.674,7.674,0,0,1,2.975-3.135,8.417,8.417,0,0,1,4.3-1.1,7.841,7.841,0,0,1,4.3,1.152,6.715,6.715,0,0,1,2.607,2.943v-3.839h2.24v17.469h-2.24v-3.871a7.019,7.019,0,0,1-2.64,2.959,7.751,7.751,0,0,1-4.3,1.168,8.259,8.259,0,0,1-4.271-1.12,7.755,7.755,0,0,1-2.975-3.168,10.958,10.958,0,0,1,0-9.454m13.325,1.04a6.169,6.169,0,0,0-2.352-2.464,6.419,6.419,0,0,0-3.279-.863,6.634,6.634,0,0,0-3.327.832,5.885,5.885,0,0,0-2.32,2.415,7.86,7.86,0,0,0-.848,3.759,7.982,7.982,0,0,0,.848,3.76,5.951,5.951,0,0,0,2.32,2.463,6.532,6.532,0,0,0,3.327.848,6.41,6.41,0,0,0,3.279-.864,6.166,6.166,0,0,0,2.352-2.463,8.4,8.4,0,0,0,0-7.423" fill="#006e6c"/>
    <path id="Path_1081" data-name="Path 1081" d="M270.634,157.894a7.228,7.228,0,0,1,3.727-.9v2.336h-.608a5.649,5.649,0,0,0-3.9,1.311q-1.472,1.313-1.471,4.384v9.758h-2.24V157.318h2.24v3.1a5.468,5.468,0,0,1,2.255-2.528" fill="#006e6c"/>
    <path id="Path_1082" data-name="Path 1082" d="M277.784,161.3a7.792,7.792,0,0,1,2.992-3.135,8.42,8.42,0,0,1,4.3-1.1,7.887,7.887,0,0,1,4.159,1.12,6.857,6.857,0,0,1,2.72,2.911v-9.982h2.24v23.676h-2.24v-3.9a6.733,6.733,0,0,1-2.624,2.992,7.771,7.771,0,0,1-4.287,1.168,8.321,8.321,0,0,1-4.3-1.12,7.755,7.755,0,0,1-2.975-3.168,10.054,10.054,0,0,1-1.072-4.735,9.853,9.853,0,0,1,1.087-4.719m13.31,1.04a6.169,6.169,0,0,0-2.352-2.464,6.419,6.419,0,0,0-3.279-.863,6.634,6.634,0,0,0-3.327.832,5.885,5.885,0,0,0-2.32,2.415,7.86,7.86,0,0,0-.848,3.759,7.982,7.982,0,0,0,.848,3.76,5.951,5.951,0,0,0,2.32,2.463,6.532,6.532,0,0,0,3.327.848,6.41,6.41,0,0,0,3.279-.864,6.166,6.166,0,0,0,2.352-2.463,8.4,8.4,0,0,0,0-7.423" fill="#006e6c"/>
    <path id="Path_1083" data-name="Path 1083" d="M14.685,1.312V3.168H8.478V23.676H6.238V3.168H0V1.312Z" fill="#006e6c"/>
    <path id="Path_1084" data-name="Path 1084" d="M30.122,6.719a5.933,5.933,0,0,1,2.5,2.544,8.783,8.783,0,0,1,.912,4.175V23.676H31.322V13.694A6.1,6.1,0,0,0,29.9,9.342a5.1,5.1,0,0,0-3.887-1.5,5.266,5.266,0,0,0-4.031,1.6,6.624,6.624,0,0,0-1.5,4.7v9.534h-2.24V0h2.24V9.183a5.788,5.788,0,0,1,2.447-2.432,8.064,8.064,0,0,1,7.2-.032" fill="#006e6c"/>
    <path id="Path_1085" data-name="Path 1085" d="M54.23,15.805H39.736A7.025,7.025,0,0,0,40.7,19.2a5.652,5.652,0,0,0,2.271,2.128,6.65,6.65,0,0,0,3.072.72A6.168,6.168,0,0,0,49.7,20.988a4.958,4.958,0,0,0,1.968-2.847h2.368A7.406,7.406,0,0,1,51.3,22.316a8.367,8.367,0,0,1-5.263,1.616,8.8,8.8,0,0,1-4.415-1.1,7.789,7.789,0,0,1-3.056-3.136,9.8,9.8,0,0,1-1.1-4.751,10.018,10.018,0,0,1,1.087-4.767,7.56,7.56,0,0,1,3.04-3.135,8.976,8.976,0,0,1,4.447-1.088,8.538,8.538,0,0,1,4.367,1.088,7.519,7.519,0,0,1,2.88,2.927,8.362,8.362,0,0,1,1.007,4.079q0,1.152-.063,1.76m-2.992-5.151a5.287,5.287,0,0,0-2.224-2.079,6.774,6.774,0,0,0-3.071-.7,6.1,6.1,0,0,0-4.255,1.6,6.388,6.388,0,0,0-1.952,4.511H52.022a6.209,6.209,0,0,0-.784-3.327" fill="#006e6c"/>
  </g>
</svg>
