<?xml version="1.0" encoding="UTF-8"?>
<svg id="A" xmlns="http://www.w3.org/2000/svg" viewBox="0 0 141.73 29.14">
  <defs>
    <style>
      .cls-1 {
        fill: #f8e200;
      }
    </style>
  </defs>
  <path class="cls-1" d="M114.8,15.54c-.41,1.23-1.21,2.12-2.42,2.62-.83,.35-1.7,.51-2.6,.4-1.36-.19-2.27-.95-2.68-2.22-.25-.78-.34-1.54-.28-2.3l8.25-1.22c.09,.93,.05,1.83-.25,2.73m1.46-3.21c-.44-1.66-1.38-2.89-3-3.55-1.28-.53-2.62-.58-3.97-.35-1.72,.29-3.18,1.09-4.25,2.45-1.67,2.12-2.2,4.54-1.72,7.15,.38,2.09,1.64,3.47,3.73,4.03,1.39,.38,2.78,.32,4.15-.05,2-.53,3.44-1.74,4.34-3.58,.66-1.32,1.25-4.11,.73-6.09M0,16.57C0,11.8,3.18,7.55,8.32,7.55c2.4,0,4.37,.93,5.45,2.6l-3.55,2.6c-.58-.89-1.42-1.11-2.19-1.11-1.95,.03-3.36,2.23-3.36,4.74,0,2.08,1.14,2.6,2.03,2.6s1.72-.36,2.62-1.44l3.58,2.24c-1.55,2.17-3.64,3.31-6.54,3.31-3.89-.03-6.36-2.29-6.36-6.54"/>
  <path class="cls-1" d="M23.67,12.81v-.03c-.68-.74-1.51-1.14-2.5-1.14-2.03,0-3.27,2.76-3.27,4.95,0,1.46,.68,2.42,1.72,2.42,1.67,0,3.58-2.19,4.04-6.2m5.12-4.95l-1.85,14.95h-4.64l.3-2.45h-.07c-1.04,1.62-2.55,2.73-4.34,2.73-3.27,0-4.93-2.66-4.93-6.11,0-5.32,3.18-9.42,7.12-9.42,1.6,0,2.8,.53,3.61,1.38h.03l.13-1.07h4.64Zm10.07-.28l-.64,5.08c-2.32-.79-4.19,.99-4.65,4.68l-.68,5.48h-4.62l1.85-14.95h4.62l-.25,2.07h.07c1.17-1.52,2.65-2.36,4.3-2.36"/>
  <path class="cls-1" d="M48.94,12.81v-.07c-.66-.76-1.5-1.1-2.52-1.1-2.07,0-3.27,2.76-3.27,4.95,0,1.46,.68,2.42,1.72,2.42,1.68,0,3.58-2.19,4.07-6.2M55,.29l-2.78,22.52h-4.64l.3-2.45h-.07c-1.05,1.63-2.56,2.73-4.4,2.73-3.23,0-4.9-2.66-4.9-6.11,0-5.32,3.18-9.42,7.09-9.42,1.54,0,2.8,.53,3.64,1.41h.05L50.37,.31h4.62s0-.02,0-.02Zm7.83,3.68c-.83,0-1.26,.4-1.51,2.35l-.2,1.52h2.41l-.46,3.71h-2.43l-1.36,11.25h-4.64l1.39-11.26h-1.27l.46-3.69h1.26l.3-2.52c.44-3.5,2.19-5.34,5.18-5.34,1.32,0,2.58,.4,3.58,1.17l-1.14,3.36c-.53-.35-1.05-.56-1.57-.56"/>
  <path class="cls-1" d="M73.42,12.81v-.03c-.68-.74-1.51-1.14-2.5-1.14-2.03,0-3.27,2.76-3.27,4.95,0,1.46,.68,2.42,1.72,2.42,1.66,0,3.58-2.19,4.04-6.2m5.11-4.95l-1.85,14.95h-4.64l.3-2.45h-.07c-1.04,1.62-2.55,2.73-4.34,2.73-3.27,0-4.93-2.66-4.93-6.11,0-5.32,3.18-9.42,7.12-9.42,1.6,0,2.8,.53,3.61,1.38h.03l.13-1.07h4.64Zm.02,8.71c0-4.77,3.17-9.02,8.31-9.02,2.4,0,4.37,.93,5.45,2.6l-3.54,2.6c-.58-.89-1.42-1.11-2.19-1.11-1.95,.03-3.36,2.23-3.36,4.74,0,2.08,1.14,2.6,2.03,2.6s1.72-.36,2.62-1.44l3.58,2.24c-1.54,2.17-3.64,3.31-6.54,3.31-3.91-.02-6.36-2.28-6.36-6.53"/>
  <path class="cls-1" d="M102.03,22.01c-1.32,.73-2.65,1.07-4.07,1.07-2.3,0-4-1.31-3.58-4.77l.81-6.76h-1.51l.46-3.7h1.5l.56-4.37,4.74-.93-.64,5.3h3.11l-.46,3.7h-3.11l-.73,6.15c-.13,.86,.15,1.26,.66,1.26,.4,0,.9-.2,1.52-.5l.74,3.54h-.01Zm25.03-14.43l-.64,5.08c-2.32-.79-4.19,.99-4.65,4.68l-.68,5.48h-4.62l1.85-14.95h4.62l-.25,2.08h.07c1.17-1.52,2.65-2.36,4.3-2.36"/>
  <path class="cls-1" d="M141.73,7.85l-1.64,12.94c-.79,6.76-4.69,8.34-8.5,8.34-1.82,0-3.71-.4-5.46-1.44l1.46-3.49c1.23,.86,2.52,1.17,3.76,1.17,2.1,0,3.58-.73,4.19-4.77h-.07c-1.11,1.52-2.62,2.48-4.52,2.48-2.83,0-4.4-1.52-3.85-5.93l1.14-9.3h4.59l-.99,7.92c-.26,2.42-.09,3.21,.99,3.21,1.36,0,3.18-2.2,3.42-4.3h.04l.83-6.82h4.62Z"/>
</svg>