<?xml version="1.0" encoding="UTF-8"?>
<svg id="A" xmlns="http://www.w3.org/2000/svg" viewBox="0 0 141.73 53.94">
  <defs>
    <style>
      .cls-1 {
        fill: #78132c;
      }
    </style>
  </defs>
  <path class="cls-1" d="M72,.57h10.68c-3.65,1.7-6.16,5.24-5.81,9.21,.51,5.82,5.81,8.07,5.81,14.93,0,4.57-2.96,8.59-6.24,10.32l-9.72-2.68c3.36-1.57,5.59-4.83,5.44-8.38-.23-5.53-5.44-8.06-5.44-14.31,0-4.24,2.36-7.64,5.28-9.1"/>
  <polygon class="cls-1" points="94.85 29.41 94.85 7.93 88.34 7.93 88.34 .57 109.99 .57 109.99 7.93 103.42 7.93 103.42 29.41 94.85 29.41"/>
  <path class="cls-1" d="M.02,15.04c.02,8.31,6.78,15.03,15.09,15.01,3.94-.01,7.73-1.57,10.53-4.34l-5.84-5.83c-2.67,2.63-6.97,2.59-9.6-.08-2.63-2.67-2.59-6.97,.08-9.6,2.64-2.6,6.88-2.6,9.52,0l5.84-5.84c-5.91-5.85-15.44-5.81-21.29,.1C1.57,7.27,0,11.06,0,15.02"/>
  <path class="cls-1" d="M44.72,21.83c-3.75,0-6.78-3.05-6.78-6.8,0-3.75,3.05-6.78,6.8-6.78,3.74,0,6.78,3.04,6.78,6.79,0,3.75-3.05,6.79-6.8,6.79M44.98,.02c-8.3,0-15.03,6.74-15.03,15.05,0,8.3,6.74,15.03,15.05,15.03,8.3,0,15.03-6.74,15.03-15.04C60.03,6.75,53.31,.02,45.01,.02c0,0-.02,0-.02,0"/>
  <path class="cls-1" d="M124.52,18.11l2.62-11.05h.46l2.63,11.05h-5.71ZM132.59,.57h-10.42l-9.13,28.83h8.8l1.18-4.96h8.7l1.17,4.96h8.83L132.59,.57Z"/>
  <polygon class="cls-1" points="62.15 42.2 70.92 42.2 70.92 44.5 64.83 44.5 64.83 46.78 69.88 46.78 69.88 49.08 64.83 49.08 64.83 53.72 62.15 53.72 62.15 42.2"/>
  <polygon class="cls-1" points="74.59 42.2 83.36 42.2 83.36 44.5 77.28 44.5 77.28 46.78 82.32 46.78 82.32 49.08 77.28 49.08 77.28 53.72 74.59 53.72 74.59 42.2"/>
  <path class="cls-1" d="M42.07,49.82c-1.02,1.6-3.14,2.07-4.75,1.05-1.6-1.02-2.07-3.14-1.05-4.75,1.02-1.6,3.14-2.07,4.75-1.05,.3,.19,.57,.43,.8,.7l1.77-1.77c-2.19-2.46-5.96-2.68-8.42-.49s-2.68,5.96-.49,8.42,5.96,2.68,8.42,.49c.28-.25,.53-.52,.76-.81l-1.77-1.8Z"/>
  <polygon class="cls-1" points="89.75 51.4 89.75 49.09 94.79 49.09 94.79 46.78 89.75 46.78 89.75 44.5 95.68 44.5 95.68 42.2 87.06 42.2 87.06 53.72 95.92 53.72 95.92 51.4 89.75 51.4"/>
  <polygon class="cls-1" points="108.54 44.5 108.54 42.2 99.92 42.2 99.92 53.72 108.78 53.72 108.78 51.4 102.61 51.4 102.61 49.08 107.66 49.08 107.66 46.78 102.61 46.78 102.61 44.5 108.54 44.5"/>
  <path class="cls-1" d="M52.48,51.38c-1.89,0-3.42-1.54-3.42-3.43,0-1.89,1.54-3.42,3.43-3.42,1.89,0,3.42,1.53,3.42,3.42,0,1.89-1.54,3.42-3.43,3.42m0-9.36c-3.29,0-5.95,2.66-5.95,5.95s2.66,5.95,5.95,5.95,5.95-2.66,5.95-5.95-2.66-5.95-5.95-5.95h0"/>
</svg>