<?xml version="1.0" encoding="UTF-8"?>
<svg id="A" xmlns="http://www.w3.org/2000/svg" viewBox="0 0 63.95 86.78">
  <defs>
    <style>
      .cls-1 {
        fill: #0b0b0b;
      }
    </style>
  </defs>
  <g>
    <path class="cls-1" d="M7.76,81.17v5.55h-.72v-2.52h-2.83v2.52h-.72v-5.55h.72v2.44h2.83v-2.44h.72Z"/>
    <path class="cls-1" d="M10.54,81.76v1.86h2.02v.6h-2.02v1.91h2.26v.6h-2.99v-5.56h2.99v.6h-2.26Z"/>
    <path class="cls-1" d="M15.46,86.14h1.94v.59h-2.67v-5.55h.72v4.96Z"/>
    <path class="cls-1" d="M19.73,81.17v5.55h-.72v-5.55h.72Z"/>
    <path class="cls-1" d="M21.89,82.48c.24-.43,.58-.77,1-1.02,.42-.24,.89-.37,1.41-.37,.61,0,1.13,.15,1.59,.44,.45,.29,.78,.71,.99,1.24h-.87c-.15-.33-.38-.59-.66-.77-.29-.18-.64-.27-1.04-.27s-.74,.09-1.04,.27c-.31,.18-.55,.44-.72,.77s-.26,.72-.26,1.17,.09,.83,.26,1.16,.42,.59,.72,.77c.31,.18,.66,.27,1.04,.27s.75-.09,1.04-.27c.29-.18,.51-.43,.66-.77h.87c-.21,.53-.54,.94-.99,1.23-.45,.29-.98,.43-1.59,.43-.51,0-.98-.12-1.41-.36-.42-.24-.76-.58-1-1.01-.24-.43-.37-.92-.37-1.46s.12-1.03,.37-1.46Z"/>
    <path class="cls-1" d="M29.87,86.42c-.42-.24-.76-.58-1.01-1.01-.25-.43-.37-.92-.37-1.46s.12-1.03,.37-1.46c.25-.43,.58-.77,1.01-1.01,.42-.24,.89-.36,1.41-.36s.99,.12,1.42,.36c.42,.24,.76,.58,1,1.01,.24,.43,.37,.92,.37,1.47s-.12,1.04-.37,1.47c-.24,.43-.58,.77-1,1.01-.42,.24-.9,.36-1.42,.36s-.98-.12-1.41-.36Zm2.46-.54c.31-.18,.55-.44,.73-.77,.18-.33,.27-.72,.27-1.16s-.09-.83-.27-1.17c-.18-.33-.42-.59-.73-.77s-.66-.27-1.05-.27-.74,.09-1.05,.27c-.31,.18-.55,.44-.73,.77-.18,.33-.27,.72-.27,1.17s.09,.83,.27,1.16c.18,.33,.42,.59,.73,.77s.66,.27,1.05,.27,.74-.09,1.05-.27Z"/>
    <path class="cls-1" d="M39.09,83.95c-.32,.31-.8,.46-1.45,.46h-1.07v2.32h-.72v-5.55h1.79c.63,0,1.1,.15,1.43,.45,.33,.3,.49,.69,.49,1.17s-.16,.85-.47,1.15Zm-.55-.4c.19-.18,.29-.42,.29-.75,0-.69-.39-1.03-1.18-1.03h-1.07v2.04h1.07c.4,0,.7-.09,.89-.26Z"/>
    <path class="cls-1" d="M44.71,81.17v.59h-1.51v4.96h-.72v-4.96h-1.52v-.59h3.76Z"/>
    <path class="cls-1" d="M47.16,81.76v1.86h2.02v.6h-2.02v1.91h2.26v.6h-2.99v-5.56h2.99v.6h-2.26Z"/>
    <path class="cls-1" d="M54.27,86.73l-1.32-2.27h-.88v2.27h-.72v-5.55h1.79c.42,0,.77,.07,1.06,.21,.29,.14,.51,.34,.65,.58,.14,.24,.21,.52,.21,.84,0,.38-.11,.72-.33,1.01-.22,.29-.55,.49-.99,.58l1.39,2.33h-.87Zm-2.2-2.85h1.07c.39,0,.69-.1,.88-.29,.2-.19,.29-.45,.29-.78s-.1-.58-.29-.76-.49-.27-.89-.27h-1.07v2.1Z"/>
    <path class="cls-1" d="M57.8,86.59c-.29-.13-.52-.31-.68-.54-.16-.23-.25-.5-.25-.8h.77c.03,.26,.13,.48,.32,.66,.19,.18,.46,.27,.82,.27s.62-.09,.82-.26c.2-.17,.3-.39,.3-.67,0-.21-.06-.38-.17-.52s-.26-.23-.44-.3c-.17-.07-.41-.14-.71-.22-.37-.1-.66-.19-.88-.29-.22-.1-.41-.25-.57-.45-.16-.2-.23-.48-.23-.82,0-.3,.08-.57,.23-.8,.15-.23,.37-.41,.65-.54s.6-.19,.96-.19c.52,0,.95,.13,1.28,.39,.33,.26,.52,.61,.56,1.04h-.8c-.03-.21-.14-.4-.33-.56s-.46-.24-.78-.24c-.3,0-.55,.08-.74,.23-.19,.16-.29,.38-.29,.66,0,.2,.06,.37,.17,.49,.11,.13,.25,.22,.42,.29,.17,.07,.4,.14,.7,.23,.37,.1,.66,.2,.88,.3s.41,.25,.57,.45,.24,.48,.24,.83c0,.27-.07,.53-.21,.76-.14,.24-.36,.43-.64,.58-.28,.15-.61,.22-1,.22s-.69-.06-.98-.19Z"/>
  </g>
  <g>
    <g>
      <path class="cls-1" d="M10.79,60.64h-2.33v6.51H3.17l-.66,.38v-6.7c0-.1-.09-.19-.19-.19H0v13.08H2.33c.1,0,.19-.08,.19-.19v-4.24h6.51l-.57,.48v3.95h2.33c.11,0,.19-.08,.19-.19v-12.7c0-.1-.09-.19-.19-.19Z"/>
      <path class="cls-1" d="M22.7,61.25v12.47h1.73c.4,0,.72-.33,.72-.73v-12.34h-1.86c-.33,0-.6,.27-.6,.61Z"/>
      <path class="cls-1" d="M40.41,72.16v-11.52h-1.98c-.27,0-.49,.22-.49,.5v11.95c0,.35,.28,.63,.63,.63h7.19v-2.22h-4.74l-.6,.66Z"/>
      <path class="cls-1" d="M59.1,71.5l-.61,.66v-11.52h-2.02c-.28,0-.5,.22-.5,.5v11.95c0,.35,.29,.63,.64,.63h7.33v-2.22h-4.84Z"/>
    </g>
    <g>
      <path class="cls-1" d="M34.96,41.13c4.67-10.84,14.15-14.33,14.6-19.61,.75-8.89-3.39-20.42-4.27-21.52-2.46,17.14-10.91,24.54-12.79,35.17-.92,4.35-.43,15.71-.1,15.51,.11-.18,.19-.35,.26-.52,2.05-5.23,9.37-18.52,11.82-14.74,.91-1.26,2.13-3.51,2.47-5.86-1.4,1.09-6.1,2.06-11.99,11.57Z"/>
      <path class="cls-1" d="M26.38,41.13c-4.67-10.84-14.15-14.33-14.6-19.61C11.03,12.63,15.17,1.1,16.05,0c2.46,17.14,10.91,24.54,12.79,35.17,.92,4.35,.43,15.71,.1,15.51-.11-.18-.19-.35-.26-.52-2.05-5.23-9.37-18.52-11.82-14.74-.91-1.26-2.13-3.51-2.47-5.86,1.4,1.09,6.1,2.06,11.99,11.57Z"/>
    </g>
  </g>
</svg>