<?xml version="1.0" encoding="UTF-8"?>
<svg id="A" xmlns="http://www.w3.org/2000/svg" viewBox="0 0 141.73 46.21">
  <path d="M21.39,43.42h0c.53-.24,.77-.58,.77-1.11,0-.63-.48-1.3-1.54-1.3h-1.49v5.1h1.73c1.25,0,1.73-.72,1.73-1.35,0-.67-.43-1.2-1.2-1.35Zm-1.49-1.73h.67c.67,0,.87,.34,.87,.72,0,.53-.34,.77-1.06,.77h-.48v-1.49Zm.91,3.8h-.91v-1.64h.87c.77,0,1.11,.34,1.11,.82,0,.39-.24,.82-1.06,.82Z"/>
  <path d="M26.34,43.71c.53-.19,.87-.67,.87-1.2,0-.87-.63-1.44-1.68-1.44h-1.3v5.1h.72v-2.21h.29c.39,0,.67,.14,1.35,1.2l.67,1.06h.87c-.34-.48-.48-.67-.67-1.01-.39-.67-.67-1.16-1.11-1.49Zm-.91-.48h-.48v-1.59h.48c.72,0,1.01,.29,1.01,.77,0,.43-.24,.82-1.01,.82Z"/>
  <rect x="29.62" y="41.06" width=".72" height="5.1"/>
  <polygon points="31.93 41.69 33.66 41.69 33.66 46.17 34.38 46.17 34.38 41.69 36.12 41.69 36.12 41.06 31.93 41.06 31.93 41.69"/>
  <rect x="37.71" y="41.06" width=".82" height="5.1"/>
  <path d="M40.98,42.22c0-.34,.34-.63,.82-.63,.34,0,.77,.14,1.16,.53v-.82c-.34-.24-.72-.34-1.11-.34-.91,0-1.54,.53-1.54,1.35,0,1.4,2.21,1.49,2.21,2.6,0,.29-.24,.63-.82,.63-.48,0-.96-.24-1.35-.72v.91c.43,.34,.87,.48,1.44,.48,.82,0,1.4-.58,1.4-1.4-.05-1.64-2.21-1.64-2.21-2.6Z"/>
  <polygon points="48.44 43.23 45.6 43.23 45.6 41.06 44.88 41.06 44.88 46.17 45.6 46.17 45.6 43.9 48.44 43.9 48.44 46.17 49.11 46.17 49.11 41.06 48.44 41.06 48.44 43.23"/>
  <path d="M55.18,43.57c0-1.11,.87-1.93,2.02-1.93,.58,0,1.11,.14,1.73,.53v-.77c-.67-.29-1.2-.43-1.73-.43-1.59,0-2.79,1.11-2.79,2.65,0,1.11,.82,2.6,2.74,2.6,.82,0,1.35-.19,1.83-.43v-.82c-.58,.39-1.2,.58-1.78,.58-1.16,0-2.02-.77-2.02-1.97Z"/>
  <path d="M66.44,43.57c0-1.11,.87-1.93,2.02-1.93,.58,0,1.11,.14,1.73,.53v-.77c-.67-.29-1.2-.43-1.73-.43-1.59,0-2.79,1.11-2.79,2.65,0,1.11,.82,2.6,2.74,2.6,.82,0,1.35-.19,1.83-.43v-.82c-.58,.39-1.2,.58-1.78,.58-1.2,0-2.02-.77-2.02-1.97Z"/>
  <path d="M79.97,40.97c-1.64,0-2.74,1.2-2.74,2.6s1.06,2.65,2.7,2.65c1.73,0,2.74-1.25,2.74-2.65s-1.01-2.6-2.7-2.6Zm0,4.57c-1.16,0-1.97-.82-1.97-1.97s.87-1.93,1.97-1.93,1.97,.82,1.97,1.93-.87,1.97-1.97,1.97Z"/>
  <path d="M73.47,41.01l-2.12,5.15h.72l.63-1.49h2.26l.67,1.49h.72l-2.36-5.15s-.53,0-.53,0Zm-.53,2.98l.72-1.88,.91,1.88h-1.64Z"/>
  <path d="M62.26,41.01l-2.17,5.15h.72l.63-1.49h2.21l.67,1.49h.72l-2.36-5.15h-.43Zm-.53,2.98l.72-1.88,.91,1.88h-1.64Z"/>
  <path d="M91.77,43.61h-1.68v.67h.96v1.06c-.34,.1-.72,.19-1.11,.19-1.2,0-2.07-.82-2.07-1.97s.87-1.93,1.97-1.93c.63,0,1.25,.14,1.83,.48v-.72c-.82-.34-1.2-.43-1.83-.43-1.54,0-2.7,1.16-2.7,2.6,0,1.54,1.16,2.65,2.7,2.65,.72,0,1.25-.1,1.93-.43h0v-2.17Z"/>
  <path d="M95.86,43.71c.53-.19,.87-.67,.87-1.2,0-.87-.63-1.44-1.68-1.44h-1.3v5.1h.72v-2.21h.29c.39,0,.67,.14,1.35,1.2l.67,1.06h.87c-.34-.48-.48-.67-.67-1.01-.39-.67-.67-1.16-1.11-1.49Zm-.91-.48h-.48v-1.59h.48c.72,0,1.01,.29,1.01,.77,0,.43-.24,.82-1.01,.82Z"/>
  <path d="M101.15,40.97c-1.64,0-2.74,1.2-2.74,2.6s1.06,2.65,2.7,2.65c1.73,0,2.84-1.25,2.84-2.65,.05-1.4-1.11-2.6-2.79-2.6Zm0,4.57c-1.16,0-1.97-.82-1.97-1.97s.87-1.93,1.97-1.93,1.97,.82,1.97,1.93-.82,1.97-1.97,1.97Z"/>
  <polygon points="110.54 44.58 109.14 41.06 108.42 41.06 107.03 44.58 105.63 41.06 104.91 41.06 106.93 46.21 107.07 46.21 108.76 42.03 110.44 46.21 110.59 46.21 112.66 41.06 111.94 41.06 110.54 44.58"/>
  <polygon points="114.82 43.9 116.89 43.9 116.89 43.23 114.82 43.23 114.82 41.69 116.94 41.69 116.99 41.69 116.99 41.06 114.1 41.06 114.1 46.17 117.04 46.17 117.04 45.49 114.82 45.49 114.82 43.9"/>
  <path d="M120.79,43.71c.53-.19,.87-.67,.87-1.2,0-.87-.63-1.44-1.68-1.44h-1.25v5.1h.67v-2.21h.29c.39,0,.67,.14,1.35,1.2l.67,1.06h.87c-.34-.48-.48-.67-.67-1.01-.39-.67-.67-1.16-1.11-1.49Zm-.91-.48h-.48v-1.59h.48c.72,0,1.01,.29,1.01,.77,0,.43-.24,.82-1.01,.82Z"/>
  <path d="M61.1,8.57c2.26,0,4.09-1.93,4.09-4.28s-1.83-4.28-4.09-4.28-4.14,1.93-4.14,4.28,1.88,4.28,4.14,4.28Zm0-7.03c1.44,0,2.6,1.25,2.6,2.74,0,1.59-1.16,2.79-2.6,2.79s-2.65-1.25-2.65-2.79c.05-1.49,1.2-2.74,2.65-2.74Z"/>
  <polygon points="48.44 4.86 51.33 4.86 51.33 8.42 52.87 8.42 52.87 .19 51.33 .19 51.33 3.32 48.44 3.32 48.44 .19 46.9 .19 46.9 8.42 48.44 8.42 48.44 4.86"/>
  <polygon points="94.75 6.88 91.14 6.88 91.14 .19 89.65 .19 89.65 8.42 94.75 8.42 94.75 6.88"/>
  <polygon points="84.35 6.88 80.65 6.88 80.65 4.86 83.63 4.86 83.63 3.32 80.65 3.32 80.65 1.73 84.35 1.73 84.35 .19 79.11 .19 79.11 8.42 84.35 8.42 84.35 6.88"/>
  <polygon points="70.92 8.42 72.41 8.42 72.41 1.68 74.58 1.68 74.58 .14 68.71 .14 68.71 1.68 70.92 1.68 70.92 8.42"/>
  <path d="M81.85,22.34c-2.65,.39-4.86,2.02-5.3,4.04-.77,.05-1.93,1.25-4.96,2.36-9.58,3.42-7.51-5.34-3.66-5.97,2.79-.43,2.17,1.01,3.03,.96,1.88-.14,1.49-1.64,1.49-1.64,0,0-1.01-1.59-3.75-.91-8.23,2.07-8.47,9.53-3.42,10.59,3.85,.72,8.23-2.21,9.29-2.74,.53-.29,1.4-.63,2.02-1.11,0,.1,.05,.14,.05,.24,.77,2.84,4.04,4.86,8.47,2.46,2.07-1.16,2.36-3.51,1.59-5.2-.87-1.97-2.79-3.37-4.86-3.08Zm.63,6.69c-3.13,1.25-4.86-3.66-1.01-5.05,1.93-.72,1.97,.34,2.55,1.25,.82,1.35,.72,2.94-1.54,3.8Z"/>
  <path d="M141.54,28.11s-.05-.14-.05-.19c-.48-.48-1.49-.43-2.26,.14-.14,.1-.29,.24-.48,.39-.53,.53-.72,1.25-.39,1.78l.14,.14c.48,.48,1.4,.48,2.21-.1,.14-.1,.29-.24,.48-.39,.48-.58,.72-1.25,.34-1.78Z"/>
  <path d="M60.57,25.37c-.82-1.93-2.79-3.32-4.86-3.03-3.37,.48-6.07,3.03-5.3,5.78,.05,.24,.14,.48,.24,.67-2.02,.91-4.96,1.44-8.33-3.71-3.95-6.02-7.51-2.5-8.76-1.2-.24,.24-.82,.1-.72-.53,.43-2.74,1.4-7.99,.77-8.38-.77-.48-2.07-.39-2.55,.1-.34,.34-.67,3.66-.82,6.93-.24,0-.58,.14-1.11,.72-.96,1.06-10.59,9.82-18.92,7.12-4.33-1.4-5.58-3.9-6.6-10.78-1.2-8.57,6.74-10.98,11.51-9.34,4.72,1.64,5.49,2.55,6.16,2.79,.72,.29,1.35,0,1.78-.43q.43-.39,.29-1.3c-.14-.91-.19-1.88-1.11-1.93-.87-.05-1.4,.29-6.31-.96-4.91-1.16-9.15-.67-13.38,4.62C-1.58,17.86,.11,24.7,1.99,27.58c7.75,12.47,25.61-.43,26.38-.63,.43-.14,1.16-.58,1.68-1.25-.05,3.51,.29,5.1,1.97,5.82h.63c.96-.05,.43-6.74,4.04-8.18,3.61-1.44,2.46,10.45,11.02,8.18,1.25-.39,2.55-1.11,3.47-1.83,1.4,1.93,4.19,2.79,7.75,.87,2.07-1.16,2.36-3.51,1.64-5.2Zm-6.93,2.46c-.87-2.21,.24-3.32,1.83-3.66,1.11-.19,1.88-.87,2.65,1.06,1.59,3.75-3.27,5.82-4.48,2.6Z"/>
  <path d="M119.4,19.54c.29-.19,3.13-.19,6.93-.1,3.85,.14,10.69,.14,11.7-.19,.96-.39,1.54-1.49,.91-2.26-.67-.72-1.35-.1-2.65-.1s-1.06,.43-4.14,.34c-3.08-.14-5.68,0-8.09,.05-2.26,.05-3.13,.05-4.09,.05-.48,0-.67-.14-.67-.29v-.24c.05-1.01,0-1.68-.24-1.88-.77-.48-2.12-.39-2.65,.1-.19,.19-.34,1.01-.53,2.17-.05,.43-.63,.29-2.36,.67-1.73,.39-2.46,.14-3.23,.91-.82,.82,.39,1.2,1.49,1.16,1.06-.05,3.27-.24,3.56,.14,.34,.39,.19,.72,.24,.72-.05,1.11-.14,2.26-.14,3.37-.05,1.97,.39,3.27,1.16,4.28-1.01,.43-2.46,1.2-4,.29-1.73-.96-3.56-2.26-4.19-2.89s-1.35,2.31-4.24,2.65c-4.43,.53-3.37-3.9-.96-4.67,1.97-.63,1.59,.72,2.17,.67,1.35-.1,.96-.82,.96-.82,0,0-.82-1.16-2.89-1.01-2.02,.14-3.66,1.35-4.43,3.56-.19,.43-.24,.96-.24,1.49-.48,.14-1.01,.34-1.73,.63-4.33,1.64-5.92-.29-6.11-3.18-.05-.77,1.4-9.77,.58-10.3-.77-.48-2.07-.39-2.55,.1-.53,.48-.87,6.5-1.01,10.4-.1,3.85,1.4,5.15,3.56,6.02,2.26,.91,5.2-.67,6.31-1.49,.39-.29,.87-.63,1.2-.96,.39,.96,1.25,1.64,2.36,1.73,1.93,.19,4.09-1.35,4.81-1.73,.77-.39,1.78,2.17,5.1,2.41,2.5,.19,4.81-1.49,5.78-2.31,.67,.67,1.44,1.11,2.31,1.44,2.07,.87,7.08,.91,10.16,0,3.23-.96,5.39-2.31,5.39-2.31,0,0,.14-1.78-.87-1.35-.1,.05-.58,.82-1.01,.96-2.07,.67-6.88,1.44-10.25,.82-2.5-.48-4.43-1.93-4.38-3.47v-.58c.1-.91,.29-2.65,.53-4.48,.14,.1,.1-.34,.43-.53Z"/>
</svg>