<?xml version="1.0" encoding="UTF-8"?>
<svg id="A" xmlns="http://www.w3.org/2000/svg" viewBox="0 0 141.73 69.97">
  <defs>
    <style>
      .cls-1 {
        fill: #fff;
      }

      .cls-2 {
        fill: #ffda05;
      }

      .cls-3 {
        fill: #e43226;
      }

      .cls-4 {
        fill: #1e3968;
      }
    </style>
  </defs>
  <path class="cls-4" d="M0,44.74v24.85H13.49v-3.85H4.56v-21H0Zm18.4,4.25c-1.56,0-2.79-1.2-2.79-2.74s1.25-2.72,2.79-2.72,2.83,1.2,2.83,2.72-1.25,2.74-2.83,2.74Zm-2.27,2.76h4.54v17.83h-4.54v-17.83h0Zm19.09-4.75c-.71-.31-1.51-.5-2.27-.5-1.44,0-2.13,.85-2.13,2.41v2.83h4.72l-1.18,3.45h-3.54v14.36h-4.54v-14.36h-2.6v-3.47h2.6v-2.5c0-5.29,3.83-6.38,6.31-6.38,.94,0,2.34,.24,3.52,.8l-.9,3.35Zm12.05,11.65h-6.97c0-1.96,1.32-3.92,3.52-3.92s3.35,2.01,3.45,3.92Zm4.68,3.19v-1.3c0-5.55-3.17-9.19-8.01-9.19-5.1,0-8.13,4.23-8.13,9.31,0,4.8,2.65,9.31,8.88,9.31,2.13,0,4.49-.57,6.5-1.96l-1.11-2.91c-1.54,.83-2.93,1.25-4.65,1.25-2.76,0-4.96-1.84-5.03-4.51h11.55Zm14.88-1.46c0,3.31-2.22,5.88-5.24,5.88-.92,0-1.56-.12-2.22-.33v-10.23c.64-.26,1.39-.57,2.53-.57,3.07,0,4.94,2.46,4.94,5.24h0Zm4.54-.38c0-5.81-4.13-8.67-8.55-8.67-1.32,0-2.41,.24-3.47,.52v-8.98h-4.54v25.8c1.49,.83,3.47,1.28,5.91,1.28,5.76,.02,10.65-3.69,10.65-9.94h0Zm15.66,.64c0,3.35-1.44,5.79-4.28,5.79s-4.37-2.34-4.37-5.79,1.39-5.74,4.28-5.74c2.79,.02,4.37,2.31,4.37,5.74h0Zm4.65-.02c0-2.72-.8-5.06-2.36-6.71-1.56-1.63-3.83-2.55-6.57-2.55-2.6,0-4.75,.92-6.35,2.53-1.65,1.7-2.6,4.11-2.6,6.9s.97,5.31,2.74,6.97c1.56,1.44,3.66,2.22,6.17,2.22,2.69,0,4.87-.94,6.47-2.57,1.63-1.65,2.5-4.09,2.5-6.78h0Zm12.94,4.63c-.59,.52-1.61,1.13-3.21,1.13-1.89,0-2.91-1.02-2.91-2.5s1.09-2.34,3.54-2.41l2.55-.07,.02,3.85h0Zm4.96,4.35c-.26-.83-.33-2.15-.33-4.7v-7.09c0-4.68-2.67-6.47-7.09-6.47-2.39,0-4.61,.38-6.99,1.96l1.49,2.83c1.13-.69,2.65-1.32,4.61-1.32s3.4,.87,3.4,3v.45l-3.17,.12c-4.56,.14-7.46,2.15-7.46,5.86,0,3.5,2.55,5.74,5.83,5.74,2.39,0,4.02-.92,5.17-1.96l.76,1.58h3.78Zm9.61,.38c-3.17,0-4.42-1.77-4.42-4.18v-10.63h-3.17v-3.4h3.17v-4.13l4.54-1.35v5.48h5.55l-1.32,3.38h-4.23v8.98c0,1.39,.52,2.06,1.7,2.06s2.29-.52,2.98-.99l1.2,2.86c-1.84,1.32-4.25,1.94-6,1.94h0Zm13.54,0c-2.95,0-5.13-.76-6.61-1.68l1.49-3.31c1.3,.9,3.02,1.58,4.8,1.58s3.05-.66,3.05-1.87c0-3.19-8.22-2.01-8.22-8.06,0-3.09,2.46-5.27,6.76-5.27,2.24,0,3.8,.33,5.22,.9v3.78c-1.51-.61-3.12-1.18-5.06-1.18-1.54,0-2.53,.5-2.53,1.56,0,2.81,8.39,1.87,8.39,8.03-.02,3.94-3.43,5.5-7.28,5.5h0ZM125.81,3.92c3.02,5.03,2.69,6.87,4.98,11.95,.87,1.94,2.79,3.24,3.73,6.24,1.06,3.35,.94,7.42,7.2,14.88-4.65,1.72-4.2,.43-8.74,.45-3.52,.02-5.43,1.25-7.91,1.25-1.94,0-3.78-.8-5.65-.71-2.93,.14-4.61,2.1-7.61,2.2-3.24,.09-3.9-.83-6.24-.83-3.12,0-4.63,2.06-10.39,2.29-2.93,.12-4.89-1.54-8.55-1.72-.94-.05-2.27-.02-3.47,.64-1.06-1.63-1.77-4.3-1.77-6.31,0-1.77,.38-4.51,0-6.97-.45-2.81-2.39-4.72-3.35-9.12-1.3-5.86,1.75-7.16-3.43-17.55,2.53-.59,5.39-.61,6.24-.61,4.2,0,5.48,1.96,8.57,1.96,2.39,0,3.21-1.28,6.54-1.28,2.95,0,4.16,2.93,8.39,2.93,2.13,0,4.28-1.18,5.91-1.18,1.13,0,2.43,.8,4.39,.8s3.71-.85,5.67-.85c2.24,0,3.54,1.54,4.87,1.54,.28,.07,.45,.05,.61,0h0Z"/>
  <path class="cls-1" d="M76.54,2.06c.87-.19,3.24-.31,4.23-.31,3.69,0,5.98,1.49,8.36,1.49,1.98,0,3.57-1.58,5.83-1.58,.87,0,1.39,.26,1.77,.47,1.11,3.61,2.74,10.84,2.74,10.84-.31-.05-.83,0-1.11,0-2.34,0-6.14,2.13-9,2.13-2.46,0-5.36-1.16-8.1-1.16-1.2,0-2.03,.28-2.27,.35,.14-6.9-1.72-10.58-2.46-12.24h0Zm53.13,13.18c-.19,.09-.61,.12-.78,.12-2.27,0-2.15-1.28-4.84-1.28-2.03,0-4.42,.97-6.28,.97-.99,0-1.89-.12-3.47-.5-1.02-2.83-1.58-6.64-3.24-10.91,.57,.09,1.54,.47,2.62,.47,3.07,0,4.3-.99,6.14-.99,2.43,0,3.31,1.54,5.06,1.54,0,0,.35,0,.54-.05,1.42,2.48,2.17,4.63,3.21,7.68,.35,.99,.66,1.96,1.04,2.95h0Zm9.52,20.36c-2.76-3.69-4.35-6.92-5.46-11.83-.26,.09-.94,.4-1.82,.33-2.39-.17-2.53-.87-4.49-.97-2.27-.09-4.25,.85-6.4,.99-1.23,.09-2.57-.07-3.71-.21,1.23,5.03,1.94,7.89,3.94,12.97,4.87,.45,7.61-1.25,10.37-1.25s2.57,.43,4.68,.43c.9,.02,1.94-.14,2.88-.45h0Zm-37.2-12.17c.64,3.43,2.34,10.8,3.35,14.2-.17-.02-.21-.05-.71-.05-4.2,0-7.02,2.31-11.6,2.31-2.46,0-3.97-.94-6.5-.94-.83,0-1.87,.07-2.74,.38-.83-1.2-1.51-3.8-1.51-5.29,0-3.26,.31-4.42-.02-7.2-.02-.17-.07-.8-.26-1.54,.38-.09,1.04-.21,1.56-.21,2.34,0,4.56,.52,7.3,.54,4.65,.09,6.61-2.39,11.13-2.2h0Z"/>
  <path class="cls-3" d="M126.8,24.85s1.75,6.43,3.43,8.95c0,0-1.82,.21-2.6,.47-.05,.02-1.61-2.34-3.24-8.98-.02,0,1.2-.33,2.41-.45Zm-33.26,10.54c-.57-2.41-.5-5.43-1.28-7.96-.64,.05-1.94,.07-2.72-.02,1.09,3.92,.66,7.56,1.7,10.28,.47,.09,1.72,.17,2.5,.12,.38-.02,2.53-.12,4.8-1.11-.17-.78-.31-1.37-.4-2.22-.69,.28-3.14,.92-4.61,.92h0ZM121.77,5.01c-.35-.35-1.49-.5-2.24-.35,0,0,1.25,2.34,1.72,3.71,0,0-2.39-2.5-3.87-3.28,0,0-.76,.28-1.72,.4,0,0,.76,1.28,2.41,7.77,0,0,.87-.02,2.24-.33,0,0-.76-2.83-1.11-3.85,0,0,1.23,.71,3.54,3.5,0,0,1.11-.12,2.13,.02,.02,0-1.11-4.13-3.09-7.58h0Zm-2.34,31.8c-2.81,0-5.31,2.27-7.77,2.27-1.44,0-3-.71-4.32-1.02-1.32-4.46-3.19-12.85-3.73-15.85-1.04-.31-1.51-.35-2.74-.35-3.07,0-7.04,2.17-10.06,2.17-2.06,0-3.57-.59-6.09-.59-.61,0-1.51-.05-3.31,.21-.59-1.04-1.75-2.91-2.22-7.51,.45-.17,1.58-.35,2.5-.35,2.86,0,5.62,1.18,8.27,1.18,3.35,0,5.34-2.29,9.35-2.29,.99,0,1.63-.02,2.41,.28-1.09-3.94-1.98-8.48-2.91-11.65,1.82,1.04,3.33,1.42,4.98,1.42,2.5,0,4.89-1.2,5.6-1.2,1.89,5.24,2.24,8.43,3.78,12.28,1.65,.54,3.59,.71,4.7,.71,1.96,0,4.56-.94,6.35-.94,2.79,0,2.88,1.16,4.65,1.16,.52,0,1.02-.07,1.3-.17,1.11,2.41,2.67,3.69,3.24,5.81-.38,.19-1.13,.33-1.65,.33-2.03,0-2.95-1.06-4.77-1.06-2.41,0-4.61,1.04-6.64,1.04-.92,0-4.02-.4-5.08-.52,.07,.38,1.75,9,4.16,14.65h0ZM89.31,5.1c2.06,.31,2.69,1.58,2.69,2.76s-1.04,1.68-1.04,1.68c.26,.31,2.74,2.91,2.74,2.91-1.54,.59-2.65,.83-2.65,.83l-2.5-3.54-.83-.19c.43,1.82,.61,3.83,.61,3.83-1.58-.21-2.74-.61-2.74-.61-.31-3.76-1.56-8.91-1.56-8.91,0,0,3.43,.97,5.27,1.25Zm-.69,3c.54,.09,1.02-.12,.97-.5-.07-.92-1.32-1.09-1.65-1.18-.33-.07-.94-.21-.94-.21l.35,1.61s.78,.21,1.28,.28Z"/>
  <path class="cls-2" d="M115.77,28.98c-.09-.64-.24-1.25-.31-1.89-.43,.5-.85,.94-1.32,1.39,0,0-.05,.05-.07,.09-.02,.07,.02,.17,.02,.17,.09,.21,.17,.33,.26,.54-.24,.57-.9,1.32-1.42,1.65-.35,.24-.57,.4-.73,.31-.19-.09-.26-.43-.26-.43-.59-1.89-1.04-3.97-1.56-6.17h.05c.92-.24,2.55-1.28,3.21-1.63l-.21-.83c-.71,.21-2.43,1.02-3.35,1.16-.09-.35-.14-.69-.24-1.02,.47-.43,.52-1.13,.09-1.68-.45-.59-1.3-.76-1.89-.35s-.69,1.18-.21,1.77c.17,.21,.38,.38,.64,.47,.07,.33,.14,.61,.21,.97,0,0-1.02-.02-3.4-.83l.24,.94s1.54,.85,3.47,1.23c.38,1.7,.9,3.87,1.61,6.19,0,0,.09,.31-.07,.45-.14,.14-.43,.12-.8-.07-1.04-.52-1.56-1.25-2.01-1.7l.07-.61s0-.12-.02-.17-.09-.07-.09-.07c-1.2-.4-1.84-.73-1.84-.73l.52,2.03s.02,.07,.05,.12c.05,.05,.17,.02,.17,.02h.59s1.25,2.22,4.77,3.07c0,0,2.72-1.94,3.26-3.87,.21-.12,.31-.17,.52-.31,0,0,.09-.05,.12-.12-.02-.02-.05-.12-.05-.12h0Zm-7.23-8.06c.24-.17,.59-.09,.8,.14,.19,.26,.14,.59-.09,.73-.24,.17-.59,.09-.78-.14-.21-.24-.19-.57,.07-.73h0Zm2.74-3.5c-.73,.17-1.7,.47-3.73,.66-2.39,.24-3.69-.45-3.69-.45-.14-.07-.47-.26-.35-.52,.09-.21,.35-.07,.73,.07,.71,.26,2.06,.38,3.38,.24,1.91-.24,2.91-.57,3.45-.61,.31-.02,.52-.09,.59,.26,.05,.19-.09,.28-.38,.35h0Zm-4.87-7.32c-.19,.4-.73,.52-1.2,.28s-.69-.76-.5-1.13c.19-.4,.73-.52,1.2-.28s.69,.73,.5,1.13h0Zm-.47-1.63c-.33-.26-.61-.73-.61-.73,0,0,.5,.14,.87,.38-.24-.8-.4-1.3-.4-1.3-.21,.26-.59,.38-.59,.38,0,0,0-.45,.12-.71-.61,.07-1.32,.05-1.32,.05,.33,.26,.57,.66,.57,.66,0,0-.45-.07-.8-.31,0,0,.21,.52,.4,1.3,.21-.26,.61-.43,.61-.43,0,0,0,.47-.17,.76,0,0,.52-.05,1.32-.05h0Zm.02,2.98c1.39-1.82,3.33-2.17,4.42-1.23,.99,.85,1.16,2.74,.28,4.06,.21,.83,.52,1.54,.61,1.87v.05c0,.07-.05,.14-.12,.14-1.11,.28-3.14,.61-3.83,.69-2.29,.19-3.5-.47-3.5-.47-.14-.07-.17-.26-.17-.26l-.52-1.63c-.09-.09-.57-.76-.66-.9-1.11-1.46-1.65-3.02-.92-3.78,.57-.59,2.27-.43,4.39,1.46h0Zm1.68,1.61c.07,.28,.28,.8,.45,1.46,0,0-.71-.26-.94-.19,0,0,.19,.97,1.37,.83s1.13-.78,1.06-.99-.52-.5-.73,.09c0,0-.4-.28-.21-.66,.19-.4,.57-.45,.78-.35,0,0-.09-.92,.21-1.11,0,0,.33,.05,.69,.78,0,0,.21-.61,.05-1.35-.14-.61-.64-1.37-1.87-1.11-1.23,.26-2.34,1.89-2.34,1.89-1.39-1.11-3.73-2.69-4.16-1.63-.38,.9,.73,2.06,.73,2.06-.02-.47,.24-.52,.24-.52,.4,.33,.61,1.13,.61,1.13,.28-.02,.59,.12,.73,.26,.45,.4,.33,.85,.33,.85-.07-.26-.33-.4-.45-.38-.14,.05-.28,.21,0,.61,.28,.43,.97,.69,1.44,.61,1.04-.12,.69-1.02,.69-1.02-.35,.09-.71,.35-.71,.35-.19-.83-.35-1.28-.45-1.51,.24,.19,.52,.31,.9,.35-.17-.38-.54-.76-.54-.76,0,0,1.06-.05,1.63-.12,0,0-.24,.38-.19,.78,.26,0,.52-.17,.69-.38h0Z"/>
</svg>