<?xml version="1.0" encoding="UTF-8"?><svg id="A" xmlns="http://www.w3.org/2000/svg" viewBox="0 0 722.34 162.85"><defs><style>.cls-1{fill:#c81b28;}</style></defs><path class="cls-1" d="M629.59,139.07c18.41-31.61,6.6-42.65-7.51-63.69-8.95-13.35-10.1-30.71-2.16-44.69,2-3.53,4.64-6.53,7.28-9.37,6.35-6.84,13.95-16.17,23.12-21.31-6.56,13.79-8.55,27.92-.85,41.64,6.36,10.1,17.11,17.79,19.11,30.31,8.27,30.07-21.17,48.73-38.99,67.11Z"/><path class="cls-1" d="M0,126.72c3.81-1.98,7.13-3.71,10.65-5.54,8.05,18.18,44,10.82,34.83-3-1.68-2.53-4.3-4.3-7.22-5.14-8.35-2.41-17.52-2.15-25.45-6.08-11.9-5.29-13.51-23.18-3.47-31,14.87-10.7,38.26-8.67,48.91,7.16-3.99,2.2-7.43,4.1-11.04,6.09-12.07-17.07-43.83-3.77-26.01,7.71,9.08,2.84,18.79,2.56,27.64,6.53,13.37,5.46,14.67,26.81,2.49,35.05-16.12,9.8-43.99,8.47-51.35-11.78Z"/><path class="cls-1" d="M261.26,137.8v25.06h-11.52l-.38-69.99h10.78s.84,3.64,1.14,4.97c16.86-13.67,43.79-2.97,41.4,22.55-.61,20.26-26.27,31.04-41.43,17.41Zm15.42-6.68c17.58-.6,18.75-27.24-.34-27.57-17.08-.12-19.07,27.27,.34,27.57Z"/><path class="cls-1" d="M227.05,98.64v-25.87h11.76v69.57h-11.17s-.58-3.96-.84-5.79c-7.79,7.47-16.08,8.85-25.78,5.16-9.51-3.2-14.47-10.51-15.48-20.25-4.52-25.46,25.23-39.7,41.51-22.81Zm-15.68,33.51c16.72,1.53,20.81-28.15,.53-28.67-18.6-.36-18.93,28.56-.53,28.67Z"/><path class="cls-1" d="M560.52,80.87c-2.89,3.04-5.5,5.78-8.42,8.85-9.38-8.89-26.36-8.54-34.97,1.21-10.76,12.07-6.57,36.14,10.56,39.9,9.42,3.44,17.33-1.49,25.93-5.4,2.56,2.41,5.43,5.12,8.29,7.82-12.19,14.14-40.32,14.33-53.51,.85-13.83-14.14-13.53-39.42,.41-53.36,15.29-15.29,42.04-12.04,51.71,.13Z"/><path class="cls-1" d="M107.05,98.59c.17-1.92,.53-6.02,.53-6.02h11.57v49.78h-10.91s-.84-3.72-1.32-5.85c-11.32,13.02-35.59,7.69-39.9-8.89-2.41-8.07-2.22-16.05,1.63-23.76,7.14-13.76,29.16-16.5,38.4-5.26Zm-29.23,18.58c-.05,20.83,28.84,20.15,29.07,.65,.24-20.18-29.32-20.95-29.07-.65Z"/><path class="cls-1" d="M444.61,121.8h-38.24c.23,13.2,18.91,12.13,27.16,6.59,2.12,2.56,4.3,5.2,6.54,7.91-7.99,9.63-31.04,10.52-40.82-.35-9.45-10.93-9.48-29.19,2.2-38.79,6.76-5.57,14.71-6.88,23.03-5.27,15.99,2.37,20.07,15.17,20.13,29.91Zm-12.39-10.12c-1.38-13.37-25.11-12.39-26.25,0h26.25Z"/><path class="cls-1" d="M177.89,142.09h-12.2c0-5.74,.09-11.26,0-16.76-.17-10.35,.64-22-11.45-22-16.94,0-12.33,26.38-12.88,38.64h-12.06v-49.09h10.69s.6,3.75,.98,6.16c8.69-7.85,22.94-10.59,31.25-.25,8.36,10.4,5.8,28.46,5.67,43.32Z"/><path class="cls-1" d="M451.92,92.82h11.23s.73,2.77,1.13,4.29c10.76-7.24,17.35-7.43,26.68-.65-1.72,3.19-3.49,6.44-5.28,9.75-8.67-4.2-21.3-2.75-21.27,9.97,.35,8.47,.07,25.81,.07,25.81h-12.57v-49.16Z"/><rect class="cls-1" x="570.65" y="71.99" width="12.65" height="70.21"/><polygon class="cls-1" points="322.08 142.15 310.72 142.15 310.72 92.92 321.93 92.92 322.08 142.15"/><path class="cls-1" d="M316.38,71.78c3.81-.02,7.25,3.51,7.23,7.42-.02,3.43-3.67,6.82-7.29,6.77-3.64-.05-6.97-3.47-6.88-7.08,.09-3.72,3.39-7.1,6.93-7.12Z"/><path class="cls-1" d="M344.55,137.8v25.06h-11.52l-.38-69.99h10.78s.84,3.64,1.14,4.97c16.86-13.67,43.79-2.97,41.4,22.55-.61,20.26-26.27,31.04-41.43,17.41Zm15.42-6.68c17.58-.6,18.75-27.24-.34-27.57-17.08-.12-19.07,27.27,.34,27.57Z"/><path class="cls-1" d="M695.68,32.92c-11.77,.27-19.89,6.32-24.76,16.75-2.31,4.95-2.91,9.89-.32,15.38,3.12,6.6,4.33,13.83,3.01,21.26-.57,3.24-.97,6.52-1.63,11.04,4.67-4.57,8.35-8.22,12.09-11.82,8.08-7.77,12.65-17,13.22-28.42,.5-10.01,8.33-19.1,17.89-22.07,2.38-.74,4.79-1.41,7.17-2.16-8.89,.04-17.78-.16-26.66,.04Zm-2.96,11.74c-1.38,0-2.5-1.12-2.5-2.49s1.12-2.49,2.5-2.49,2.49,1.12,2.49,2.49-1.12,2.49-2.49,2.49Z"/></svg>