<?xml version="1.0" encoding="UTF-8"?>
<svg id="A" xmlns="http://www.w3.org/2000/svg" viewBox="0 0 100.08 78.35">
  <defs>
    <style>
      .cls-1 {
        fill: #0b0b0b;
      }
    </style>
  </defs>
  <g>
    <path class="cls-1" d="M0,59.95H3.84v.14c-.36,0-.6,.03-.73,.08-.11,.05-.2,.13-.27,.24-.07,.11-.1,.23-.1,.37,0,.17,.06,.41,.2,.71l.16,.38,1.9,4.64,1.33-4c.17-.51,.26-.9,.26-1.15,0-.19-.03-.37-.1-.55-.07-.18-.16-.32-.27-.43s-.23-.18-.36-.23c-.14-.04-.31-.07-.52-.07v-.14h3.93v.14c-.24,0-.41,0-.52,.02-.11,.02-.21,.05-.3,.1-.12,.07-.22,.18-.3,.31s-.11,.28-.11,.44c0,.15,.06,.4,.17,.76l1.5,4.85,1.68-4.13c.26-.63,.39-1.12,.39-1.47s-.12-.62-.36-.77c-.15-.09-.37-.13-.67-.13v-.14h2.83v.14c-.27,.03-.48,.08-.62,.16-.14,.08-.28,.21-.42,.41-.2,.29-.46,.8-.76,1.55l-2.51,6.09h-.25l-2.18-6.51-2.21,6.51h-.27l-2.73-6.58-.18-.45c-.13-.3-.23-.52-.32-.65s-.19-.24-.31-.32c-.1-.06-.2-.11-.32-.14-.11-.03-.27-.05-.48-.07v-.14Z"/>
    <path class="cls-1" d="M22.17,68.29h-4.02v-.14c.36-.03,.61-.09,.76-.18,.25-.16,.38-.38,.38-.66,0-.17-.06-.39-.17-.67l-.1-.26-.59-1.44h-2.69l-.32,.84-.15,.38c-.18,.45-.27,.8-.27,1.06,0,.15,.03,.29,.1,.42,.07,.13,.16,.24,.27,.32,.16,.11,.36,.18,.61,.2v.14h-2.74v-.14c.22-.01,.41-.06,.57-.16s.32-.24,.48-.45c.13-.17,.26-.38,.38-.64,.12-.26,.29-.66,.49-1.18l2.24-5.76h.35l2.66,6.42c.2,.48,.36,.83,.48,1.04,.12,.21,.25,.36,.38,.47,.1,.07,.21,.13,.34,.17s.32,.07,.57,.1v.14Zm-3.84-3.61l-1.28-3.17-1.21,3.17h2.49Z"/>
    <path class="cls-1" d="M25.64,60.14c-.26,0-.53,0-.82,.02-.63,.03-1.09,.11-1.4,.24-.31,.13-.56,.34-.76,.65-.18,.29-.32,.67-.42,1.16h-.14s.11-2.27,.11-2.27h8.27l.11,2.26h-.14c-.11-.55-.28-.98-.52-1.27-.23-.29-.58-.5-1.02-.63-.38-.11-1.02-.16-1.93-.16v6.23c0,.42,.02,.72,.07,.93s.13,.37,.26,.5c.11,.12,.24,.2,.39,.26,.14,.05,.33,.09,.57,.1v.14h-3.91v-.14c.24-.01,.43-.04,.57-.1,.14-.05,.27-.14,.39-.26,.13-.13,.21-.3,.26-.49,.05-.2,.07-.51,.07-.93v-6.23Z"/>
    <path class="cls-1" d="M38.45,59.9l.07,2.73h-.14c-.04-.12-.08-.21-.1-.27-.14-.39-.26-.68-.35-.87-.16-.34-.39-.66-.69-.94-.23-.22-.46-.37-.71-.47-.24-.1-.52-.15-.82-.15-.46,0-.86,.1-1.2,.3-.3,.17-.57,.43-.83,.75-.26,.33-.47,.7-.63,1.12-.23,.59-.35,1.26-.35,2.02,0,.64,.08,1.22,.24,1.73,.16,.51,.39,.94,.7,1.29,.56,.64,1.31,.97,2.24,.97,.46,0,.88-.08,1.25-.24,.37-.16,.66-.39,.86-.68,.24-.34,.41-.79,.51-1.37l.14,.02c-.08,.64-.25,1.16-.53,1.53-.26,.36-.62,.64-1.08,.83-.46,.19-.99,.29-1.59,.29-.56,0-1.1-.08-1.61-.25-.82-.27-1.46-.75-1.92-1.46-.46-.7-.69-1.54-.69-2.51,0-.75,.13-1.43,.4-2.06,.27-.63,.64-1.14,1.12-1.52,.37-.29,.81-.53,1.33-.7,.51-.17,1.03-.26,1.55-.26s1.01,.09,1.56,.28l.5,.16c.1,.04,.18,.05,.26,.05,.1,0,.19-.04,.25-.13,.03-.04,.06-.11,.1-.2h.15Z"/>
    <path class="cls-1" d="M41.93,63.83h4.34v-1.96c0-.42-.02-.73-.07-.93-.05-.2-.13-.36-.26-.49-.11-.12-.24-.2-.39-.26-.14-.05-.33-.08-.57-.1v-.14h3.91v.14c-.23,.01-.42,.04-.57,.1-.14,.05-.27,.14-.39,.26-.13,.13-.21,.3-.26,.5s-.07,.51-.07,.93v4.5c0,.42,.02,.72,.07,.92s.13,.37,.26,.5c.11,.11,.24,.2,.39,.25s.33,.09,.57,.1v.14h-3.91v-.14c.24-.01,.43-.05,.57-.1,.14-.05,.27-.14,.39-.25,.13-.13,.21-.3,.26-.49,.05-.2,.07-.51,.07-.93v-2.25h-4.34v2.25c0,.42,.02,.72,.07,.93s.13,.37,.26,.5c.11,.11,.24,.2,.38,.25,.14,.05,.33,.09,.57,.1v.14h-3.91v-.14c.24-.01,.43-.05,.57-.1,.14-.05,.27-.14,.38-.25,.13-.13,.22-.3,.26-.49,.04-.2,.07-.51,.07-.93v-4.5c0-.42-.02-.73-.07-.93-.04-.2-.13-.36-.26-.49-.11-.12-.24-.2-.38-.26-.15-.05-.34-.08-.57-.1v-.14h3.91v.14c-.23,.01-.42,.04-.56,.1-.14,.05-.27,.14-.39,.26-.13,.13-.21,.3-.26,.5s-.07,.51-.07,.93v1.96Z"/>
    <path class="cls-1" d="M60.05,60.09c-.23,.01-.42,.04-.56,.09-.14,.05-.27,.13-.39,.25-.09,.09-.16,.18-.2,.28-.04,.1-.08,.24-.09,.39-.03,.21-.04,.46-.04,.75v4.5c0,.42,.02,.73,.07,.94s.14,.37,.26,.49c.22,.22,.54,.33,.95,.35v.14h-3.91v-.14c.24-.01,.43-.05,.57-.1,.14-.05,.27-.14,.39-.25,.13-.13,.21-.3,.26-.5s.07-.51,.07-.93v-5.46l-3.15,7.38h-.13l-3.13-7.27v5.35c0,.42,.02,.73,.07,.93,.05,.2,.13,.36,.26,.49,.11,.12,.24,.2,.39,.26,.14,.05,.33,.09,.57,.1v.14h-2.82v-.14c.23-.01,.42-.04,.57-.1,.14-.05,.27-.14,.39-.26,.13-.13,.21-.3,.26-.5s.07-.51,.07-.93v-4.5c0-.19,0-.36-.02-.53-.02-.3-.07-.52-.14-.66-.1-.19-.24-.33-.42-.42-.18-.09-.41-.15-.71-.16v-.14h2.65l2.65,6.53,2.74-6.53h2.51v.14Z"/>
    <path class="cls-1" d="M69.16,68.29h-4.02v-.14c.36-.03,.61-.09,.76-.18,.25-.16,.38-.38,.38-.66,0-.17-.06-.39-.17-.67l-.1-.26-.59-1.44h-2.69l-.32,.84-.15,.38c-.18,.45-.27,.8-.27,1.06,0,.15,.03,.29,.1,.42,.07,.13,.16,.24,.27,.32,.16,.11,.36,.18,.61,.2v.14h-2.74v-.14c.22-.01,.41-.06,.57-.16s.32-.24,.48-.45c.13-.17,.26-.38,.38-.64,.12-.26,.29-.66,.49-1.18l2.24-5.76h.35l2.66,6.42c.2,.48,.36,.83,.48,1.04,.12,.21,.25,.36,.38,.47,.1,.07,.21,.13,.34,.17s.32,.07,.57,.1v.14Zm-3.84-3.61l-1.28-3.17-1.21,3.17h2.49Z"/>
    <path class="cls-1" d="M69.63,68.26l.02-2.52h.14c.17,.65,.37,1.15,.61,1.52,.44,.68,1,1.02,1.67,1.02,.47,0,.86-.16,1.16-.47s.46-.71,.46-1.19c0-.21-.03-.42-.1-.64-.07-.22-.16-.4-.27-.56-.12-.16-.28-.31-.5-.46-.21-.15-.54-.33-.98-.56-.39-.2-.68-.36-.89-.5-.21-.13-.37-.27-.5-.41-.35-.38-.53-.85-.53-1.4,0-.34,.07-.66,.2-.98,.14-.31,.33-.58,.57-.81,.43-.4,.94-.6,1.53-.6,.19,0,.37,.02,.53,.06s.38,.11,.65,.23c.2,.08,.34,.13,.42,.16,.07,.02,.14,.03,.2,.03,.14,0,.24-.1,.29-.31h.14l.04,2.43h-.14c-.11-.39-.2-.68-.28-.89-.08-.21-.17-.4-.28-.57-.2-.32-.42-.55-.66-.71-.24-.15-.52-.23-.83-.23-.46,0-.82,.15-1.08,.46-.11,.13-.2,.27-.26,.45-.06,.17-.09,.34-.09,.51,0,.68,.44,1.23,1.31,1.65l.86,.42c.66,.31,1.14,.66,1.43,1.04,.33,.42,.5,.92,.5,1.48,0,.37-.08,.73-.23,1.07-.21,.48-.53,.84-.95,1.1s-.92,.39-1.5,.39c-.53,0-1.03-.1-1.52-.31-.25-.11-.4-.17-.45-.19s-.1-.02-.16-.02c-.2,0-.33,.1-.4,.29h-.14Z"/>
    <path class="cls-1" d="M79.1,60.14c-.26,0-.53,0-.82,.02-.63,.03-1.09,.11-1.4,.24-.31,.13-.56,.34-.76,.65-.18,.29-.32,.67-.42,1.16h-.14s.11-2.27,.11-2.27h8.27l.11,2.26h-.14c-.11-.55-.28-.98-.52-1.27-.23-.29-.58-.5-1.02-.63-.38-.11-1.02-.16-1.93-.16v6.23c0,.42,.02,.72,.07,.93s.13,.37,.26,.5c.11,.12,.24,.2,.39,.26,.14,.05,.33,.09,.57,.1v.14h-3.91v-.14c.24-.01,.43-.04,.57-.1,.14-.05,.27-.14,.39-.26,.13-.13,.21-.3,.26-.49,.05-.2,.07-.51,.07-.93v-6.23Z"/>
    <path class="cls-1" d="M90.97,59.95l.1,2.02h-.14c-.05-.34-.14-.62-.26-.84-.12-.22-.3-.42-.53-.59-.19-.14-.42-.24-.68-.3-.26-.06-.61-.09-1.04-.09h-1.4v3.67h.37c.37,0,.65-.02,.84-.07,.19-.05,.34-.14,.46-.26,.11-.12,.2-.26,.25-.42,.05-.16,.1-.4,.14-.71h.14s-.02,3.28-.02,3.28h-.14c-.04-.31-.09-.57-.16-.76-.07-.19-.17-.35-.3-.49-.12-.13-.28-.23-.48-.29s-.44-.09-.75-.09h-.35v1.4c0,.56,.01,.96,.04,1.22,.03,.25,.08,.47,.16,.64,.14,.29,.35,.51,.63,.64,.28,.14,.66,.2,1.12,.2,.49,0,.9-.06,1.23-.19,.33-.12,.6-.32,.81-.58,.15-.17,.27-.37,.36-.6,.09-.22,.18-.52,.25-.89h.14s-.08,2.44-.08,2.44h-7.29v-.14c.23-.01,.42-.04,.57-.1,.14-.05,.27-.14,.39-.26,.13-.13,.21-.3,.26-.5s.07-.51,.07-.93v-4.5c0-.42-.02-.72-.07-.93s-.13-.37-.26-.5c-.11-.12-.24-.2-.38-.26-.14-.05-.34-.08-.57-.1v-.14h6.57Z"/>
    <path class="cls-1" d="M94.82,64.21v2.16c0,.42,.02,.72,.07,.93s.13,.37,.26,.5c.11,.11,.24,.2,.38,.25,.14,.05,.33,.09,.57,.1v.14h-3.91v-.14c.24-.01,.43-.05,.57-.1,.14-.05,.27-.14,.38-.25,.13-.13,.22-.3,.26-.49,.04-.2,.07-.51,.07-.93v-4.5c0-.42-.02-.73-.07-.93-.04-.2-.13-.36-.26-.49-.11-.12-.24-.2-.38-.26-.15-.05-.34-.08-.57-.1v-.14h2.95c.49,0,.82,0,.97,0,.63,.03,1.13,.11,1.48,.26,.4,.16,.72,.41,.94,.73,.22,.32,.33,.7,.33,1.13,0,.64-.24,1.14-.72,1.53-.15,.11-.31,.21-.49,.28-.18,.07-.41,.14-.71,.21,.24,.1,.43,.21,.54,.32,.09,.09,.18,.19,.26,.32,.08,.13,.19,.36,.35,.68,.36,.75,.64,1.29,.82,1.63,.19,.34,.34,.59,.47,.75,.1,.13,.2,.21,.3,.26,.1,.05,.23,.08,.39,.1v.14h-2.03c-.1-.22-.17-.37-.2-.43l-.43-.97c-.26-.58-.51-1.1-.78-1.55-.26-.44-.5-.75-.71-.91-.11-.08-.23-.14-.35-.17-.13-.03-.28-.05-.46-.05h-.3Zm0-.13h.23c.51,0,.87-.03,1.08-.09,.22-.06,.42-.17,.61-.35,.43-.41,.64-.91,.64-1.52,0-.32-.06-.62-.19-.91-.12-.28-.3-.52-.52-.7-.17-.14-.37-.24-.61-.29s-.57-.08-1.01-.08h-.25v3.94Z"/>
  </g>
  <g>
    <path class="cls-1" d="M16.65,76.54c-.35,.19-.79,.28-1.32,.28-.68,0-1.22-.22-1.63-.66-.41-.44-.61-1.01-.61-1.72,0-.76,.23-1.38,.69-1.85,.46-.47,1.04-.71,1.75-.71,.45,0,.83,.07,1.13,.2v.6c-.34-.19-.72-.29-1.13-.29-.55,0-.99,.18-1.33,.55-.34,.37-.51,.86-.51,1.47s.16,1.05,.48,1.39c.32,.35,.74,.52,1.25,.52,.48,0,.9-.11,1.25-.32v.54Z"/>
    <path class="cls-1" d="M20.3,75.17h-2.41c0,.38,.11,.67,.31,.88s.46,.31,.81,.31c.38,0,.74-.13,1.06-.38v.51c-.3,.22-.7,.33-1.19,.33s-.86-.15-1.14-.46c-.28-.31-.41-.75-.41-1.31,0-.53,.15-.96,.45-1.3,.3-.33,.67-.5,1.12-.5s.79,.14,1.04,.43,.37,.69,.37,1.2v.29Zm-.56-.46c0-.32-.08-.56-.23-.74s-.36-.26-.62-.26-.48,.09-.66,.28c-.18,.18-.29,.43-.33,.72h1.84Z"/>
    <path class="cls-1" d="M22.9,73.88c-.1-.07-.23-.11-.41-.11-.23,0-.43,.11-.59,.33-.16,.22-.23,.52-.23,.9v1.74h-.55v-3.41h.55v.7h.01c.08-.24,.2-.43,.36-.56,.16-.13,.34-.2,.54-.2,.14,0,.25,.02,.33,.05v.57Z"/>
    <path class="cls-1" d="M25.08,76.71c-.13,.07-.3,.11-.51,.11-.6,0-.9-.33-.9-1v-2.02h-.59v-.47h.59v-.83l.55-.18v1.01h.86v.47h-.86v1.92c0,.23,.04,.39,.12,.49,.08,.1,.21,.15,.39,.15,.14,0,.26-.04,.36-.11v.47Z"/>
    <path class="cls-1" d="M26.09,72.46c-.1,0-.18-.03-.25-.1-.07-.07-.1-.15-.1-.25s.03-.19,.1-.25c.07-.07,.15-.1,.25-.1s.18,.03,.25,.1c.07,.07,.1,.15,.1,.25s-.03,.18-.1,.25c-.07,.07-.15,.1-.25,.1Zm.27,4.28h-.55v-3.41h.55v3.41Z"/>
    <path class="cls-1" d="M29.15,72.17c-.11-.06-.23-.09-.36-.09-.38,0-.57,.24-.57,.72v.53h.8v.47h-.8v2.95h-.54v-2.95h-.58v-.47h.58v-.55c0-.36,.1-.64,.31-.85,.21-.21,.46-.31,.77-.31,.17,0,.3,.02,.4,.06v.49Z"/>
    <path class="cls-1" d="M29.88,72.46c-.1,0-.18-.03-.25-.1-.07-.07-.1-.15-.1-.25s.03-.19,.1-.25c.07-.07,.15-.1,.25-.1s.18,.03,.25,.1c.07,.07,.1,.15,.1,.25s-.03,.18-.1,.25c-.07,.07-.15,.1-.25,.1Zm.27,4.28h-.55v-3.41h.55v3.41Z"/>
    <path class="cls-1" d="M34,75.17h-2.41c0,.38,.11,.67,.31,.88s.46,.31,.81,.31c.38,0,.74-.13,1.06-.38v.51c-.3,.22-.7,.33-1.19,.33s-.86-.15-1.14-.46c-.28-.31-.41-.75-.41-1.31,0-.53,.15-.96,.45-1.3,.3-.33,.67-.5,1.12-.5s.79,.14,1.04,.43,.37,.69,.37,1.2v.29Zm-.56-.46c0-.32-.08-.56-.23-.74s-.36-.26-.62-.26-.48,.09-.66,.28c-.18,.18-.29,.43-.33,.72h1.84Z"/>
    <path class="cls-1" d="M37.74,76.74h-.55v-.58h-.01c-.25,.44-.64,.66-1.17,.66-.43,0-.77-.15-1.03-.46s-.38-.72-.38-1.25c0-.56,.14-1.02,.43-1.36s.66-.51,1.14-.51,.81,.18,1.02,.55h.01v-2.11h.55v5.05Zm-.55-1.54v-.5c0-.28-.09-.51-.27-.7-.18-.19-.41-.29-.69-.29-.33,0-.6,.12-.79,.37-.19,.24-.29,.58-.29,1.01,0,.39,.09,.7,.27,.93,.18,.23,.43,.34,.74,.34s.55-.11,.74-.33,.28-.5,.28-.83Z"/>
    <path class="cls-1" d="M43.27,76.74h-2.48v-4.78h.56v4.27h1.92v.51Z"/>
    <path class="cls-1" d="M46.69,76.74h-.55v-.54h-.01c-.23,.41-.58,.62-1.05,.62-.81,0-1.22-.48-1.22-1.45v-2.04h.54v1.95c0,.72,.28,1.08,.83,1.08,.27,0,.49-.1,.66-.29s.26-.45,.26-.77v-1.97h.55v3.41Z"/>
    <path class="cls-1" d="M50.29,73.33l-1.15,1.73,1.13,1.69h-.64l-.67-1.11c-.04-.07-.09-.16-.15-.26h-.01s-.06,.11-.16,.26l-.68,1.11h-.63l1.16-1.67-1.11-1.74h.64l.66,1.17c.05,.09,.1,.18,.14,.27h.01l.85-1.43h.6Z"/>
    <path class="cls-1" d="M53.69,76.74h-.55v-.54h-.01c-.23,.41-.58,.62-1.05,.62-.81,0-1.22-.48-1.22-1.45v-2.04h.54v1.95c0,.72,.28,1.08,.83,1.08,.27,0,.49-.1,.66-.29s.26-.45,.26-.77v-1.97h.55v3.41Z"/>
    <path class="cls-1" d="M56.57,73.88c-.1-.07-.23-.11-.41-.11-.23,0-.43,.11-.59,.33-.16,.22-.23,.52-.23,.9v1.74h-.55v-3.41h.55v.7h.01c.08-.24,.2-.43,.36-.56,.16-.13,.34-.2,.54-.2,.14,0,.25,.02,.33,.05v.57Z"/>
    <path class="cls-1" d="M59.88,73.33l-1.57,3.96c-.28,.71-.67,1.06-1.18,1.06-.14,0-.26-.01-.36-.04v-.49c.12,.04,.23,.06,.32,.06,.28,0,.48-.16,.62-.49l.27-.65-1.33-3.41h.61l.92,2.63s.03,.12,.07,.26h.02c.01-.05,.03-.14,.07-.25l.97-2.63h.57Z"/>
    <path class="cls-1" d="M68.08,71.96l-1.35,4.78h-.66l-.98-3.49c-.04-.15-.07-.31-.08-.49h-.01c-.01,.16-.04,.32-.09,.48l-.99,3.5h-.65l-1.4-4.78h.62l1.02,3.67c.04,.15,.07,.31,.08,.48h.02c.01-.12,.05-.28,.1-.48l1.06-3.67h.54l1.01,3.69c.04,.13,.06,.28,.08,.45h.01c0-.12,.04-.27,.09-.46l.98-3.68h.61Z"/>
    <path class="cls-1" d="M71.16,76.74h-.55v-.53h-.01c-.24,.41-.59,.61-1.05,.61-.34,0-.61-.09-.8-.27-.19-.18-.29-.42-.29-.72,0-.64,.38-1.01,1.13-1.11l1.02-.14c0-.58-.23-.87-.7-.87-.41,0-.78,.14-1.11,.42v-.56c.33-.21,.72-.32,1.16-.32,.8,0,1.2,.42,1.2,1.27v2.22Zm-.55-1.73l-.82,.11c-.25,.04-.44,.1-.57,.19-.13,.09-.19,.25-.19,.48,0,.17,.06,.3,.18,.41,.12,.1,.28,.16,.47,.16,.27,0,.49-.09,.67-.28,.18-.19,.26-.43,.26-.72v-.34Z"/>
    <path class="cls-1" d="M73.77,76.71c-.13,.07-.3,.11-.51,.11-.6,0-.9-.33-.9-1v-2.02h-.59v-.47h.59v-.83l.55-.18v1.01h.86v.47h-.86v1.92c0,.23,.04,.39,.12,.49,.08,.1,.21,.15,.39,.15,.14,0,.26-.04,.36-.11v.47Z"/>
    <path class="cls-1" d="M76.83,76.59c-.26,.16-.57,.24-.93,.24-.49,0-.88-.16-1.18-.47-.3-.32-.45-.73-.45-1.23,0-.56,.16-1.01,.48-1.35,.32-.34,.75-.51,1.29-.51,.3,0,.56,.06,.79,.17v.56c-.25-.18-.52-.27-.81-.27-.35,0-.63,.12-.86,.37-.22,.25-.33,.58-.33,.98s.1,.72,.31,.95,.49,.35,.85,.35c.3,0,.58-.1,.84-.3v.52Z"/>
    <path class="cls-1" d="M80.49,76.74h-.55v-1.97c0-.71-.26-1.07-.79-1.07-.27,0-.49,.1-.67,.31-.18,.21-.27,.47-.27,.79v1.93h-.55v-5.05h.55v2.21h.01c.26-.43,.64-.65,1.12-.65,.77,0,1.15,.46,1.15,1.39v2.1Z"/>
    <path class="cls-1" d="M84.26,75.17h-2.41c0,.38,.11,.67,.31,.88s.46,.31,.81,.31c.38,0,.74-.13,1.06-.38v.51c-.3,.22-.7,.33-1.19,.33s-.86-.15-1.14-.46c-.28-.31-.41-.75-.41-1.31,0-.53,.15-.96,.45-1.3,.3-.33,.67-.5,1.12-.5s.79,.14,1.04,.43,.37,.69,.37,1.2v.29Zm-.56-.46c0-.32-.08-.56-.23-.74s-.36-.26-.62-.26-.48,.09-.66,.28c-.18,.18-.29,.43-.33,.72h1.84Z"/>
    <path class="cls-1" d="M84.88,76.62v-.59c.3,.22,.63,.33,.98,.33,.48,0,.72-.16,.72-.48,0-.09-.02-.17-.06-.23s-.1-.12-.17-.17c-.07-.05-.15-.09-.25-.13-.09-.04-.2-.08-.3-.12-.15-.06-.28-.12-.4-.18-.11-.06-.21-.13-.29-.21s-.13-.16-.17-.26c-.04-.1-.06-.21-.06-.34,0-.16,.04-.3,.11-.42,.07-.12,.17-.23,.29-.31,.12-.08,.26-.15,.42-.19,.16-.04,.32-.06,.48-.06,.3,0,.56,.05,.79,.15v.55c-.25-.16-.54-.25-.87-.25-.1,0-.19,.01-.28,.03-.08,.02-.15,.06-.21,.1-.06,.04-.1,.09-.14,.15-.03,.06-.05,.12-.05,.19,0,.09,.02,.16,.05,.22,.03,.06,.08,.11,.14,.16,.06,.05,.14,.09,.23,.13,.09,.04,.19,.08,.3,.12,.15,.06,.29,.12,.41,.18s.22,.13,.31,.21c.08,.08,.15,.16,.19,.26s.07,.22,.07,.36c0,.17-.04,.32-.11,.44-.07,.12-.17,.23-.3,.31-.12,.08-.27,.14-.43,.18-.16,.04-.33,.06-.51,.06-.35,0-.66-.07-.91-.2Z"/>
  </g>
  <g>
    <path class="cls-1" d="M63.5,.02c.36,0,.72,.02,1.09,0,5.3-.29,8.44,3.5,11.24,7.21,4.61,6.1,7.17,12.97,6.82,20.6-.46,10-4.73,18.21-12.8,24.38-.57,.43-1.31,.88-1.98,.89-4.22,.08-8.45,.04-12.72,.04,.09-.55,.09-.91,.15-.92,3.07-.52,3.75-2.57,3.7-5.29-.09-4.94-.02-9.89-.46-14.99-3.23,6.83-6.46,13.66-9.7,20.49-.26,0-.51,0-.77,0-3.18-6.81-6.36-13.63-9.54-20.44l-.46,.07c0,5.3-.05,10.59,.02,15.89,.03,2.39,1.66,4.52,3.88,5.38-3.12,0-5.37,0-7.49,0-2.85,0-4.46-1.38-6.3-3.07-4.9-4.51-8.43-9.84-9.61-16.37-2-11.08,.19-21.12,8.23-29.54C29.04,2.03,31.32,.29,34.7,.11c.23-.01,1.16-.09,1.98-.09,1.49,0,2.98,0,4.47,0-.76,.82-1.53,1.64-2.69,2.88,2.23,4.85,4.55,9.9,7.15,15.57,.67-1.94,1.1-3.2,1.53-4.45,.48-1.39,.88-2.82,1.48-4.15,.73-1.62,.99-3.17,.12-4.83-.92-1.76-1.51-3.77-4.06-3.93-.35-.02-.66-.71-.99-1.08,4.26,0,8.51,0,12.77,0-.96,.71-1.93,1.42-3.32,2.45,1.6,5.08,3.25,10.34,5.12,16.27,2-5.84,5.05-10.47,6.33-15.5-1.2-1.28-2.1-2.25-3.01-3.21,.64,0,1.28,0,1.92,0Zm3.82,26.76c.07,.24,.14,.49,.21,.73-1.78,.52-3.3,1.24-3.3,3.33,0,6-.1,12,.03,18,.06,2.62,2.18,3.73,4.45,2.4,1.44-.85,2.8-1.96,3.91-3.2,8.84-9.9,11.17-22.38,5.42-34.6-2.03-4.32-4.83-8.11-9.38-11.05-4.3,7.28-8.26,16.37-12.21,23.46-.24-.02-.49-.05-.73-.07-1.63-5.2-3.26-10.41-4.88-15.61-3.05,5.01-3.48,10.7-6.54,16.1-.79-1.54-1.28-2.44-1.73-3.35-2.94-5.95-5.84-11.92-8.83-17.84-.48-.96-1.04-1.81-1.8-2.68-.78,0-1.64,.71-2.03,1.04-13.39,11.34-14.4,32.89-1.29,45.56,1.38,1.34,2.88,3.53,5.42,2.46,2.37-1,2.32-3.46,2.46-5.46,.26-3.67,.13-7.37,.11-11.05,0-1.57,.23-3.28-.29-4.69-.47-1.27-1.83-2.21-2.99-3.52,2.79,0,5.38,0,8.3,0,2.84,6.07,5.67,12.12,8.79,18.79,3.16-6.71,6.01-12.77,8.82-18.74,2.96,0,5.53,0,8.1,0Z"/>
    <circle class="cls-1" cx="50.1" cy="29.03" r="2.3"/>
  </g>
</svg>