<?xml version="1.0" standalone="no"?>
<!DOCTYPE svg PUBLIC "-//W3C//DTD SVG 20010904//EN"
 "http://www.w3.org/TR/2001/REC-SVG-20010904/DTD/svg10.dtd">
<svg version="1.0" xmlns="http://www.w3.org/2000/svg"
 width="260.000000pt" height="260.000000pt" viewBox="0 0 260.000000 260.000000"
 preserveAspectRatio="xMidYMid meet">
<metadata>
Created by potrace 1.11, written by Peter Selinger 2001-2013
</metadata>
<g transform="translate(0.000000,260.000000) scale(0.100000,-0.100000)"
fill="#000000" stroke="none">
<path d="M3 1863 c2 -406 7 -751 11 -768 4 -16 12 -50 17 -75 32 -147 105
-316 196 -452 65 -98 240 -273 338 -338 221 -148 440 -219 695 -226 74 -2 167
1 205 6 580 83 1025 517 1119 1091 13 79 15 335 3 384 -2 11 -8 40 -12 65 -30
181 -135 405 -265 565 -205 252 -461 401 -815 472 -16 4 -360 8 -763 10 l-733
4 4 -738z m1472 394 c104 -22 107 -23 181 -53 156 -61 302 -170 409 -306 208
-263 264 -611 149 -930 -109 -300 -371 -536 -679 -612 -95 -23 -133 -28 -241
-27 -212 1 -412 68 -580 197 -202 153 -328 361 -375 614 -17 92 -19 1119 -2
1128 6 4 249 6 540 5 424 -1 542 -4 598 -16z"/>
</g>
</svg>
