<svg id="Group_1149" data-name="Group 1149" xmlns="http://www.w3.org/2000/svg" xmlns:xlink="http://www.w3.org/1999/xlink" width="332.956" height="414.586" viewBox="0 0 332.956 414.586">
  <defs>
    <clipPath id="clip-path">
      <rect id="Rectangle_240" data-name="Rectangle 240" width="332.956" height="414.586" fill="none"/>
    </clipPath>
  </defs>
  <g id="Group_1148" data-name="Group 1148" clip-path="url(#clip-path)">
    <path id="Path_724" data-name="Path 724" d="M245.068,306.486,20.413,387.025a11.308,11.308,0,0,1-12.727-10.6L2.764,229.076c-.313-6.517,6.769-17.931,13.485-18.6L236.4,126a11.309,11.309,0,0,1,12.727,10.6l7.533,156.879a12.782,12.782,0,0,1-11.593,13.006" fill="#6d6d6d"/>
    <path id="Path_725" data-name="Path 725" d="M144.793,121.734A70.388,70.388,0,1,1,56.5,75.77a70.389,70.389,0,0,1,88.3,45.964" fill="#f28f1a"/>
    <path id="Path_726" data-name="Path 726" d="M97.059,204.417a64.5,64.5,0,1,1,42.12-80.914,64.575,64.575,0,0,1-42.12,80.914M59.046,83.854a61.91,61.91,0,1,0,77.661,40.429A61.98,61.98,0,0,0,59.046,83.854" fill="#fff"/>
    <path id="Path_727" data-name="Path 727" d="M92.354,143.686c6.317-2.009,11.074-6.9,11.112-14.791.045-9.42-7.133-16.348-20.082-16.731l.039-8.134c.01-2.056-7.723-2.561-7.734-.31l-.04,8.347-5.469-.026.039-8.075c.009-2.056-7.724-2.56-7.734-.31L62.444,112l-4.163-.02a2.514,2.514,0,0,0-2.526,2.5l-.286,59.361a2.877,2.877,0,0,0,2.864,2.891l3.8.018-.039,8.1c-.01,2.056,7.723,2.561,7.734.31l.04-8.377,5.469.026-.039,8.1c-.009,2.055,7.724,2.56,7.734.309l.041-8.377.306,0c13.453.064,21.371-7.135,21.42-17.431.037-7.607-5.124-14.408-12.445-15.742M90.188,130.78c-.026,5.288-3.563,8.059-9.686,8.029l-11.875-.057.078-16.241,11.875.057c6.123.03,9.632,3.015,9.608,8.212m-8.613,35.494-13.08-.063.084-17.442,12.8.061c6.308.031,10.284,3.389,10.257,8.956-.026,5.477-3.753,8.518-10.061,8.488" fill="#fff"/>
    <path id="Path_728" data-name="Path 728" d="M265.068,42.514A48.463,48.463,0,1,1,211.018.373a48.464,48.464,0,0,1,54.05,42.141" fill="#f28f1a"/>
    <path id="Path_729" data-name="Path 729" d="M222.429,92.543a44.411,44.411,0,1,1,38.617-49.531,44.462,44.462,0,0,1-38.617,49.531M211.735,6.165a42.626,42.626,0,1,0,47.54,37.066,42.675,42.675,0,0,0-47.54-37.066" fill="#fff"/>
    <path id="Path_730" data-name="Path 730" d="M226.821,50.835c4.529-.573,8.36-3.293,9.37-8.629,1.206-6.373-2.79-11.959-11.51-13.834l1.042-5.5c.263-1.39-4.91-2.7-5.2-1.175l-1.069,5.647-3.7-.7,1.034-5.462c.263-1.391-4.91-2.7-5.2-1.175l-1.069,5.647-2.817-.534a1.732,1.732,0,0,0-2.023,1.38l-7.6,40.158a1.982,1.982,0,0,0,1.579,2.315l2.571.487-1.038,5.482c-.263,1.391,4.91,2.7,5.2,1.175l1.073-5.667,3.7.7-1.037,5.483c-.264,1.391,4.91,2.7,5.2,1.175l1.072-5.667.207.039c9.1,1.723,15.361-2.164,16.68-9.129a10.811,10.811,0,0,0-6.463-12.212m.144-9.009c-.677,3.577-3.418,5.012-7.56,4.228l-8.034-1.521,2.08-10.987,8.034,1.52c4.141.784,6.145,3.244,5.48,6.76M216.7,64.784l-8.849-1.675,2.234-11.8,8.659,1.639c4.267.808,6.541,3.578,5.828,7.344-.7,3.705-3.605,5.3-7.872,4.492" fill="#fff"/>
    <path id="Path_731" data-name="Path 731" d="M214.149,147.566a56.622,56.622,0,1,1-79.819,6.4,56.621,56.621,0,0,1,79.819-6.4" fill="#f28f1a"/>
    <path id="Path_732" data-name="Path 732" d="M216.941,224.316a51.888,51.888,0,1,1-5.862-73.145,51.947,51.947,0,0,1,5.862,73.145m-77.42-65.933a49.8,49.8,0,1,0,70.206-5.625,49.858,49.858,0,0,0-70.206,5.625" fill="#fff"/>
    <path id="Path_733" data-name="Path 733" d="M187.787,184.933c3.447-4.069,4.6-9.437,1.254-14.829-3.994-6.44-11.846-8.1-20.836-2.823l-3.449-5.561c-.871-1.406-6.358,1.554-5.4,3.093l3.539,5.706-3.738,2.319-3.424-5.52c-.871-1.4-6.358,1.555-5.4,3.093l3.539,5.707-2.846,1.765a2.024,2.024,0,0,0-.653,2.785l25.168,40.582a2.316,2.316,0,0,0,3.187.747l2.6-1.612,3.436,5.541c.872,1.4,6.358-1.555,5.4-3.093l-3.552-5.727,3.739-2.319,3.437,5.541c.871,1.4,6.358-1.555,5.4-3.094l-3.551-5.727.209-.129c9.2-5.7,11.518-13.994,7.152-21.033-3.225-5.2-9.648-7.63-15.208-5.412m-6.991-7.871c2.242,3.615,1.015,7.015-3.171,9.611l-8.118,5.035-6.886-11.1,8.118-5.035c4.186-2.6,7.854-2.061,10.057,1.492m9.295,27.872-8.942,5.546-7.4-11.925,8.751-5.427c4.312-2.674,8.457-2.084,10.817,1.722,2.322,3.744,1.081,7.41-3.231,10.084" fill="#fff"/>
    <path id="Path_734" data-name="Path 734" d="M305.286,402.759,20.08,414.576a12.08,12.08,0,0,1-12.57-11.57L.01,221.994a12.08,12.08,0,0,1,11.57-12.57l285.206-11.816a12.079,12.079,0,0,1,12.57,11.569l7.5,181.012a12.08,12.08,0,0,1-11.57,12.57" fill="#a7dafc"/>
    <path id="Path_735" data-name="Path 735" d="M224.647,346A40.222,40.222,0,0,1,223.01,265.6l88.639-3.672q.321-.014.64-.014a15.213,15.213,0,0,1,15.234,14.625l2.067,49.888A15.274,15.274,0,0,1,314.978,342.3l-88.639,3.672q-.849.035-1.69.035Z" fill="#daccfe"/>
    <path id="Path_736" data-name="Path 736" d="M312.288,265.262a11.9,11.9,0,0,1,11.884,11.411l2.067,49.887a11.9,11.9,0,0,1-11.4,12.386L226.2,342.618q-.78.033-1.553.033a36.869,36.869,0,0,1-1.5-73.706l88.639-3.672c.167-.007.334-.011.5-.011m0-6.706q-.389,0-.778.016l-88.64,3.673a43.575,43.575,0,0,0,1.777,87.112c.607,0,1.223-.013,1.83-.038l88.639-3.673a18.631,18.631,0,0,0,17.824-19.363l-2.067-49.888a18.56,18.56,0,0,0-18.585-17.839" fill="#fff"/>
    <path id="Path_737" data-name="Path 737" d="M232.891,288.573l-18.908.783.784,18.907c.432,10.433,8.617,19.288,19.054,19.607a19.7,19.7,0,0,0,20.185-21.932c-1.182-10.374-10.683-17.8-21.115-17.365" fill="#2dc0e8"/>
    <path id="Path_738" data-name="Path 738" d="M234.428,331.232c-.236,0-.472,0-.709-.011-11.991-.366-21.787-10.39-22.3-22.82l-.923-22.256,22.259-.922c12.423-.5,23.228,8.418,24.585,20.336a23.049,23.049,0,0,1-22.91,25.673m-16.956-38.665.646,15.556c.37,8.935,7.312,16.135,15.805,16.4a16.344,16.344,0,0,0,16.752-18.2c-.961-8.441-8.7-14.755-17.645-14.393Z" fill="#fff"/>
  </g>
</svg>
