<svg id="Group_1185" data-name="Group 1185" xmlns="http://www.w3.org/2000/svg" xmlns:xlink="http://www.w3.org/1999/xlink" width="177.679" height="183.07" viewBox="0 0 177.679 183.07">
  <defs>
    <clipPath id="clip-path">
      <rect id="Rectangle_259" data-name="Rectangle 259" width="177.679" height="183.07" fill="none"/>
    </clipPath>
  </defs>
  <g id="Group_1184" data-name="Group 1184" clip-path="url(#clip-path)">
    <path id="Path_755" data-name="Path 755" d="M143.047,86.622a27.969,27.969,0,0,0-27.9-27.9H87.238V86.629a27.762,27.762,0,0,0,1.506,9L23.2,119.266a4.3,4.3,0,1,0,2.916,8.085l1.157-.418,2.44,6.774a4.3,4.3,0,1,0,8.085-2.911l-2.441-6.778,2.043-.736L41.9,135.807A4.3,4.3,0,0,0,49.99,132.9l-4.51-12.529,2.056-.742,2.93,8.137a4.3,4.3,0,1,0,8.085-2.911L55.62,116.71,92.8,103.3a27.887,27.887,0,0,0,50.249-16.682m-27.9,19.313A19.354,19.354,0,0,1,95.831,86.626V67.313H115.14a19.311,19.311,0,1,1,0,38.622" fill="#fff"/>
    <path id="Path_756" data-name="Path 756" d="M91.5,0a85.94,85.94,0,0,0,0,29.411A85.965,85.965,0,0,0,91.5,0" fill="#fff"/>
    <path id="Path_757" data-name="Path 757" d="M91.436,183.07a112.52,112.52,0,0,0,0-33.653,112.454,112.454,0,0,0,0,33.653" fill="#fff"/>
    <path id="Path_758" data-name="Path 758" d="M153.287,91.568a59.361,59.361,0,0,0,24.392,0,59.326,59.326,0,0,0-24.392,0" fill="#fff"/>
    <path id="Path_759" data-name="Path 759" d="M0,91.5a112.487,112.487,0,0,0,33.653,0A112.421,112.421,0,0,0,0,91.5" fill="#fff"/>
    <path id="Path_760" data-name="Path 760" d="M164.829,18.921A154.1,154.1,0,0,0,136.947,46.8a154.167,154.167,0,0,0,27.882-27.883" fill="#fff"/>
    <path id="Path_761" data-name="Path 761" d="M20.832,163.186a28.578,28.578,0,0,0,11.9-11.9,28.567,28.567,0,0,0-11.9,11.9" fill="#fff"/>
    <path id="Path_762" data-name="Path 762" d="M129.41,130.11A200.131,200.131,0,0,0,161.2,161.9a200.049,200.049,0,0,0-31.79-31.79" fill="#fff"/>
    <path id="Path_763" data-name="Path 763" d="M50.577,50.55a112.461,112.461,0,0,0-23.8-23.8,112.484,112.484,0,0,0,23.8,23.8" fill="#fff"/>
    <path id="Path_764" data-name="Path 764" d="M118.855,78.426l.613-2.3a1.1,1.1,0,0,0-2.119-.564l-.609,2.286-1.5-.4.609-2.287a1.1,1.1,0,0,0-2.119-.564l-.608,2.286a1.892,1.892,0,0,0-2.316,1.343L107.059,92.3a1.893,1.893,0,0,0,1.342,2.316l-.611,2.295a1.1,1.1,0,0,0,2.119.564l.611-2.295,1.5.4-.611,2.295a1.1,1.1,0,0,0,2.119.564l.611-2.295.084.023c3.685.981,6.372-.426,7.122-3.247a4.45,4.45,0,0,0-2.285-5.208,4.232,4.232,0,0,0,4.106-3.261c.687-2.581-.785-5-4.309-6.027m-1,13.1c-.4,1.5-1.639,2.068-3.367,1.608l-3.583-.954,1.272-4.778,3.506.934c1.728.46,2.578,1.665,2.172,3.19m1.537-7.51c-.386,1.448-1.554,1.955-3.232,1.508l-3.252-.866,1.184-4.448,3.253.866c1.677.446,2.426,1.516,2.047,2.94" fill="#fff"/>
  </g>
</svg>
