<svg id="Group_1189" data-name="Group 1189" xmlns="http://www.w3.org/2000/svg" xmlns:xlink="http://www.w3.org/1999/xlink" width="180.143" height="181.924" viewBox="0 0 180.143 181.924">
  <defs>
    <clipPath id="clip-path">
      <rect id="Rectangle_261" data-name="Rectangle 261" width="180.143" height="181.924" fill="none"/>
    </clipPath>
  </defs>
  <g id="Group_1188" data-name="Group 1188" clip-path="url(#clip-path)">
    <path id="Path_768" data-name="Path 768" d="M21.956,15.238,17.732,13l-2.05-5.768a1.742,1.742,0,0,0-1.654-1.233h-.016a1.724,1.724,0,0,0-1.644,1.154L10.09,13.224,6.124,15.242a1.747,1.747,0,0,0-.015,3.105l4.109,2.146,2.148,6.24a1.737,1.737,0,0,0,1.662,1.241h.012A1.719,1.719,0,0,0,15.688,26.8L18.034,20.3l3.887-1.954a1.747,1.747,0,0,0,.035-3.1M16.04,18.527l-1.986,5.51-1.816-5.282L8.506,16.807l3.564-1.813,1.923-5.129,1.728,4.866,3.829,2.032Z" fill="#fff"/>
    <path id="Path_769" data-name="Path 769" d="M148.555,161.274l-4.225-2.242-2.05-5.765a1.739,1.739,0,0,0-1.652-1.236h-.018a1.724,1.724,0,0,0-1.643,1.154l-2.278,6.075-3.965,2.017a1.746,1.746,0,0,0-.016,3.106l4.109,2.146,2.148,6.24a1.738,1.738,0,0,0,1.662,1.242h.01a1.721,1.721,0,0,0,1.65-1.174l2.346-6.506,3.887-1.954a1.747,1.747,0,0,0,.035-3.1m-5.916,3.289-1.986,5.51-1.816-5.282-3.732-1.948,3.564-1.813,1.923-5.128,1.728,4.865,3.829,2.032Z" fill="#fff"/>
    <path id="Path_770" data-name="Path 770" d="M6.408,46.553a6.407,6.407,0,1,0,6.407,6.409,6.415,6.415,0,0,0-6.407-6.409m0,10.34a3.932,3.932,0,1,1,3.932-3.931,3.937,3.937,0,0,1-3.932,3.931" fill="#fff"/>
    <path id="Path_771" data-name="Path 771" d="M168.368,169.108a6.408,6.408,0,1,0,6.408,6.408,6.415,6.415,0,0,0-6.408-6.408m0,10.341a3.933,3.933,0,1,1,3.933-3.933,3.938,3.938,0,0,1-3.933,3.933" fill="#fff"/>
    <path id="Path_772" data-name="Path 772" d="M29.757,41.21a3.038,3.038,0,1,0-3.039-3.038,3.043,3.043,0,0,0,3.039,3.038m0-3.6a.563.563,0,1,1-.563.563.564.564,0,0,1,.563-.563" fill="#fff"/>
    <path id="Path_773" data-name="Path 773" d="M166.568,143.285a3.038,3.038,0,1,0-3.037-3.038,3.043,3.043,0,0,0,3.037,3.038m0-3.6a.563.563,0,1,1-.562.563.564.564,0,0,1,.562-.563" fill="#fff"/>
    <path id="Path_774" data-name="Path 774" d="M90.629,92.917l-5.192-1.383L83.552,98.61l5.307,1.413c2.559.682,4.395-.158,4.987-2.38.6-2.259-.658-4.045-3.217-4.726" fill="#fff"/>
    <path id="Path_775" data-name="Path 775" d="M93.09,82.165l-4.818-1.283-1.754,6.589,4.818,1.283c2.483.661,4.214-.089,4.785-2.234.561-2.109-.548-3.694-3.031-4.355" fill="#fff"/>
    <path id="Path_776" data-name="Path 776" d="M179.96,23.954a5.875,5.875,0,0,0-3.992-4.2l-12.053-3.718L160,4.077a5.914,5.914,0,0,0-9.837-2.3L139.139,12.987a5.914,5.914,0,0,0-1.587,5.262l3.209,16.674-7.4,7.4a64.828,64.828,0,1,0,4.376,4.375l7.261-7.262,17.2,3a5.913,5.913,0,0,0,5.234-1.681l11.02-11.213a5.872,5.872,0,0,0,1.516-5.593m-25.7-17.521,2.67,8.152-3.762,3.826-2.143-8.687Zm-7.31,7.437,2.143,8.689L145.4,26.31l-1.749-9.09Zm-1.021,76.352A56.147,56.147,0,1,1,127.22,48.463l-9.877,9.877a42.2,42.2,0,1,0,4.377,4.373l9.877-9.876a55.829,55.829,0,0,1,14.33,37.385M104.6,71.086a24.233,24.233,0,1,0,4.379,4.372l6.608-6.607a33.492,33.492,0,1,1-4.378-4.374Zm-5.579,28.62c-1.112,4.177-5.091,6.261-10.549,4.808l-.124-.033-.9,3.4a1.624,1.624,0,1,1-3.138-.836l.9-3.4-2.22-.591-.9,3.4a1.624,1.624,0,1,1-3.139-.835l.906-3.4a2.8,2.8,0,0,1-1.988-3.43l5.551-20.851a2.8,2.8,0,0,1,3.431-1.988l.9-3.387a1.624,1.624,0,0,1,3.139.836l-.9,3.386,2.219.592.9-3.387a1.624,1.624,0,1,1,3.138.836l-.908,3.411c5.219,1.529,7.4,5.1,6.382,8.925a6.269,6.269,0,0,1-6.082,4.83,6.592,6.592,0,0,1,3.385,7.714M163.111,36.32l-9.118-1.592,3.839-3.906-.022.089,8.578,2.075Zm7.321-7.45L161.8,26.784,165.515,23l8.2,2.529Z" fill="#fff"/>
  </g>
</svg>
